<svg version="1.1" id="Layer_1" xmlns="http://www.w3.org/2000/svg" xmlns:xlink="http://www.w3.org/1999/xlink" x="0px" y="0px"
	 width="100%" viewBox="0 0 398 512" enable-background="new 0 0 398 512" xml:space="preserve">
<path fill="#000000" opacity="1.000000" stroke="none" 
	d="
M42.000000,1.000000 
	C160.887238,1.000000 279.774475,1.000000 399.000000,1.000000 
	C399.000000,35.686829 399.000000,70.374756 398.615051,105.473228 
	C397.882141,105.550972 397.298798,105.266037 397.220001,104.878510 
	C393.032501,84.286171 389.550232,63.502918 379.995941,44.432034 
	C375.238220,34.935329 370.884888,25.222315 365.765350,15.928426 
	C364.104980,12.914199 360.519196,8.785725 356.795563,11.225679 
	C352.745789,13.879355 356.374115,17.849627 358.244659,20.664957 
	C363.739258,28.934860 367.326141,37.813328 369.206726,47.605145 
	C371.040527,57.153278 373.664520,66.557915 376.172485,75.963997 
	C377.105072,79.461639 379.695404,82.752998 379.804199,86.193008 
	C380.234558,99.799805 379.980957,113.428230 379.980957,127.048637 
	C379.465118,127.313454 378.949280,127.578278 378.433441,127.843094 
	C376.955872,125.475014 374.616608,123.263550 374.152710,120.711227 
	C372.323181,110.644852 371.225739,100.448174 369.583954,90.344162 
	C367.864929,79.764839 365.940491,69.215515 363.900055,58.692978 
	C362.525757,51.605621 359.397217,45.338284 353.244110,38.772678 
	C352.493927,41.704987 351.542145,43.506996 351.678772,45.222305 
	C352.282043,52.795650 353.188782,60.345104 354.004547,67.901169 
	C354.890961,76.111427 355.717590,84.329308 356.721069,92.525398 
	C357.576935,99.515457 358.646576,106.479340 359.623840,113.470467 
	C359.133301,113.514160 358.698334,113.693024 358.512177,113.549393 
	C348.945587,106.168404 339.396454,98.764801 329.853882,91.352737 
	C323.983795,86.793236 318.167938,82.162659 312.248169,77.668800 
	C309.046021,75.237961 305.424957,75.321983 304.158722,79.221069 
	C303.541840,81.120636 305.520264,84.588173 307.292969,86.395287 
	C311.658234,90.845230 316.897858,94.442169 321.225952,98.922974 
	C334.029205,112.178017 346.561493,125.694778 359.530731,139.460449 
	C359.386383,140.215164 359.202606,141.689011 358.817017,143.108032 
	C356.339844,152.224808 353.616852,161.010773 341.753113,161.695984 
	C338.677673,161.873596 335.640808,163.131256 332.636108,164.055069 
	C309.037354,171.310562 284.821808,176.800339 262.951111,188.959488 
	C255.794922,192.938034 253.848328,191.536209 252.967514,183.282745 
	C252.126480,175.401962 251.157257,167.524307 249.882050,159.704361 
	C249.114273,154.996216 247.323563,150.742188 241.852783,149.409134 
	C237.041870,148.236862 235.040833,149.965698 236.478638,154.805176 
	C240.792221,169.323990 240.556320,184.288635 240.817078,199.165390 
	C240.869217,202.139847 239.071182,205.529617 237.217087,208.062317 
	C234.618912,211.611450 231.272812,214.649948 228.012161,217.652206 
	C227.158890,218.437851 225.411819,218.605942 224.121277,218.499496 
	C219.681824,218.133362 215.270538,217.437637 210.834198,217.019318 
	C203.428711,216.320999 196.022339,215.459534 188.597351,215.189896 
	C181.469055,214.931030 174.278687,214.948975 167.193542,215.642090 
	C164.380753,215.917252 162.614838,216.018982 161.195511,213.453934 
	C160.563278,212.311386 159.713654,211.242264 158.785461,210.317795 
	C151.609070,203.170029 147.455215,195.014740 148.927246,184.454803 
	C149.998840,176.767426 150.074005,168.937576 151.226059,161.266251 
	C151.962997,156.358994 154.053009,151.718567 158.479721,148.734451 
	C161.637009,146.606094 163.336975,143.659836 161.187363,140.397263 
	C160.637451,139.562653 156.343399,140.321991 154.390961,141.437088 
	C146.380493,146.012146 140.337112,152.580261 138.132523,161.699615 
	C136.784058,167.277634 136.870224,173.189713 135.831665,178.863846 
	C135.552536,180.388779 133.416351,182.821930 132.301590,182.732468 
	C127.116196,182.316406 121.586609,182.093552 116.926765,180.076630 
	C107.218353,175.874542 98.245499,169.938324 88.470642,165.934891 
	C79.961639,162.449905 70.630714,161.028137 61.912956,157.979813 
	C53.927513,155.187561 46.421162,151.272995 43.315681,142.112274 
	C44.568184,141.025604 45.596191,139.926514 46.813835,139.110352 
	C55.896572,133.022385 64.996933,126.960152 74.130173,120.948204 
	C87.001213,112.475861 99.870270,103.999237 112.829727,95.663666 
	C115.001465,94.266800 118.061661,94.059486 119.905533,92.404678 
	C121.408066,91.056213 122.968735,87.467262 122.258438,86.468498 
	C121.019814,84.726845 117.989326,83.268158 115.826599,83.414597 
	C112.815430,83.618507 109.851494,85.273071 106.971840,86.543602 
	C88.899010,94.517509 70.864914,102.579254 52.789574,110.547432 
	C50.505798,111.554199 48.055813,112.183937 44.865807,113.265320 
	C46.845459,105.300354 48.511765,98.408768 50.275112,91.542107 
	C53.526329,78.881516 57.494297,66.321686 56.859070,53.044544 
	C56.762421,51.024403 54.799675,49.093540 53.700054,47.121387 
	C52.111347,48.673107 49.616512,49.959457 49.072475,51.817116 
	C42.836662,73.110001 36.941967,94.502556 30.802277,115.824181 
	C30.259398,117.709465 28.633562,119.282913 27.510712,121.001198 
	C26.918409,120.720528 26.326105,120.439857 25.733801,120.159187 
	C26.065006,115.229851 26.416027,110.301735 26.722170,105.370842 
	C27.069876,99.770546 27.717834,94.160820 27.603704,88.568069 
	C27.496351,83.307236 26.063719,78.056465 26.133709,72.813553 
	C26.210468,67.063293 26.819191,61.206264 28.119143,55.610180 
	C30.732548,44.359867 33.928921,33.243191 36.970512,22.094774 
	C38.874798,15.114961 44.800762,9.102523 42.000000,1.000000 
z"/>
<path fill="#000000" opacity="1.000000" stroke="none" 
	d="
M399.000000,158.000000 
	C399.000000,276.237762 399.000000,394.475494 399.000000,513.000000 
	C336.979401,513.000000 274.958344,513.000000 212.533234,512.605713 
	C212.628860,511.836212 213.089340,511.208649 213.634186,511.123962 
	C220.648331,510.033630 227.747070,509.364899 234.679794,507.903503 
	C243.942291,505.951019 253.776123,504.027313 258.464417,494.529205 
	C261.106018,489.177521 262.378326,482.977936 263.340454,477.010834 
	C264.679016,468.708771 265.649292,460.277374 265.829437,451.880981 
	C265.970123,445.323029 264.436584,438.747528 264.054230,432.156219 
	C263.228882,417.927460 262.677338,403.682922 261.989319,389.446045 
	C261.677368,382.992065 261.368256,376.536926 260.951813,370.089203 
	C259.661102,350.106781 258.340942,330.126221 256.981873,310.148346 
	C256.657959,305.386932 256.137909,300.638855 255.761627,295.528137 
	C255.934372,294.461243 256.053528,293.750793 256.389893,293.197754 
	C257.155945,293.396576 258.009216,293.687256 258.209167,293.443054 
	C263.135742,287.425415 268.207947,281.507812 272.787384,275.231812 
	C275.848816,271.036163 279.125641,268.945099 284.660950,268.713409 
	C289.532898,268.509491 294.558868,266.381287 299.053345,264.163544 
	C304.827972,261.314087 310.209534,257.634186 315.634521,254.117752 
	C324.142487,248.602936 332.637848,242.875992 338.298798,234.267365 
	C345.950623,222.631088 348.568451,209.235550 349.894287,195.655670 
	C350.536865,189.074280 351.485840,183.513519 359.045898,181.380249 
	C363.962250,179.992966 368.830200,178.071320 373.333344,175.665604 
	C380.463135,171.856689 387.349670,167.567276 394.160767,163.202896 
	C396.092133,161.965347 397.404022,159.760986 399.000000,158.000000 
z"/>
<path fill="#000000" opacity="1.000000" stroke="none" 
	d="
M145.000000,513.000000 
	C97.041847,513.000000 49.083702,513.000000 1.000000,513.000000 
	C1.000000,393.979126 1.000000,274.958221 1.350450,155.481949 
	C4.130394,157.181900 6.223890,160.080093 9.050068,161.358368 
	C18.992071,165.855072 29.185955,169.794846 39.283894,173.946869 
	C42.637669,175.325851 46.603313,176.046600 49.094429,178.356689 
	C50.413277,179.579697 49.166019,183.568466 49.082481,186.308777 
	C49.077477,186.472931 49.124401,186.638046 49.138214,186.803452 
	C50.257614,200.207535 54.375935,212.769135 60.397930,224.667526 
	C66.469864,236.664597 75.239433,246.523621 85.549072,255.154358 
	C92.430412,260.915100 99.150551,266.284058 109.003922,265.160217 
	C110.837456,264.951050 113.757202,266.310974 114.734558,267.857483 
	C120.492607,276.968903 125.758507,286.389526 131.336212,295.617767 
	C133.206955,298.712860 133.370361,301.394958 130.923370,304.210175 
	C125.430107,310.530060 123.310555,318.188812 121.979111,326.269135 
	C118.569725,346.960052 114.595009,367.563263 111.506973,388.299927 
	C109.148407,404.138062 106.920403,420.091949 106.290962,436.059662 
	C105.819023,448.032074 107.414238,460.188477 109.098000,472.120575 
	C112.009392,492.752319 121.614220,505.839600 143.183716,511.103271 
	C143.900742,511.278229 144.399490,512.347595 145.000000,513.000000 
z"/>
<path fill="#042433" opacity="1.000000" stroke="none" 
	d="
M145.468658,513.000000 
	C144.399490,512.347595 143.900742,511.278229 143.183716,511.103271 
	C121.614220,505.839600 112.009392,492.752319 109.098000,472.120575 
	C107.414238,460.188477 105.819023,448.032074 106.290962,436.059662 
	C106.920403,420.091949 109.148407,404.138062 111.506973,388.299927 
	C114.595009,367.563263 118.569725,346.960052 121.979111,326.269135 
	C123.310555,318.188812 125.430107,310.530060 130.923370,304.210175 
	C133.370361,301.394958 133.206955,298.712860 131.336212,295.617767 
	C125.758507,286.389526 120.492607,276.968903 114.734558,267.857483 
	C113.757202,266.310974 110.837456,264.951050 109.003922,265.160217 
	C99.150551,266.284058 92.430412,260.915100 85.549072,255.154358 
	C75.239433,246.523621 66.469864,236.664597 60.397930,224.667526 
	C54.375935,212.769135 50.257614,200.207535 49.138214,186.803452 
	C49.124401,186.638046 49.077477,186.472931 49.082481,186.308777 
	C49.166019,183.568466 50.413277,179.579697 49.094429,178.356689 
	C46.603313,176.046600 42.637669,175.325851 39.283894,173.946869 
	C29.185955,169.794846 18.992071,165.855072 9.050068,161.358368 
	C6.223890,160.080093 4.130394,157.181900 1.350450,155.013290 
	C1.000000,149.977905 1.000000,144.955811 1.350739,139.437683 
	C3.454199,135.676941 6.469200,132.516296 6.748327,129.130112 
	C8.213959,111.350136 8.947959,93.510704 10.035704,75.697998 
	C10.245900,72.255859 10.493152,68.725983 11.423404,65.434448 
	C14.390243,54.936787 17.321556,44.402637 20.968035,34.131615 
	C24.061487,25.418314 28.061703,17.021193 31.803608,8.547276 
	C32.961491,5.925134 34.588032,3.509943 36.000000,1.000000 
	C37.714359,1.000000 39.428715,1.000000 41.571537,1.000000 
	C44.800762,9.102523 38.874798,15.114961 36.970512,22.094774 
	C33.928921,33.243191 30.732548,44.359867 28.119143,55.610180 
	C26.819191,61.206264 26.210468,67.063293 26.133709,72.813553 
	C26.063719,78.056465 27.496351,83.307236 27.603704,88.568069 
	C27.717834,94.160820 27.069876,99.770546 26.722170,105.370842 
	C26.416027,110.301735 26.065006,115.229851 25.733801,120.159187 
	C26.326105,120.439857 26.918409,120.720528 27.510712,121.001198 
	C28.633562,119.282913 30.259398,117.709465 30.802277,115.824181 
	C36.941967,94.502556 42.836662,73.110001 49.072475,51.817116 
	C49.616512,49.959457 52.111347,48.673107 53.700054,47.121387 
	C54.799675,49.093540 56.762421,51.024403 56.859070,53.044544 
	C57.494297,66.321686 53.526329,78.881516 50.275112,91.542107 
	C48.511765,98.408768 46.845459,105.300354 44.865807,113.265320 
	C48.055813,112.183937 50.505798,111.554199 52.789574,110.547432 
	C70.864914,102.579254 88.899010,94.517509 106.971840,86.543602 
	C109.851494,85.273071 112.815430,83.618507 115.826599,83.414597 
	C117.989326,83.268158 121.019814,84.726845 122.258438,86.468498 
	C122.968735,87.467262 121.408066,91.056213 119.905533,92.404678 
	C118.061661,94.059486 115.001465,94.266800 112.829727,95.663666 
	C99.870270,103.999237 87.001213,112.475861 74.130173,120.948204 
	C64.996933,126.960152 55.896572,133.022385 46.813835,139.110352 
	C45.596191,139.926514 44.568184,141.025604 43.315681,142.112274 
	C46.421162,151.272995 53.927513,155.187561 61.912956,157.979813 
	C70.630714,161.028137 79.961639,162.449905 88.470642,165.934891 
	C98.245499,169.938324 107.218353,175.874542 116.926765,180.076630 
	C121.586609,182.093552 127.116196,182.316406 132.301590,182.732468 
	C133.416351,182.821930 135.552536,180.388779 135.831665,178.863846 
	C136.870224,173.189713 136.784058,167.277634 138.132523,161.699615 
	C140.337112,152.580261 146.380493,146.012146 154.390961,141.437088 
	C156.343399,140.321991 160.637451,139.562653 161.187363,140.397263 
	C163.336975,143.659836 161.637009,146.606094 158.479721,148.734451 
	C154.053009,151.718567 151.962997,156.358994 151.226059,161.266251 
	C150.074005,168.937576 149.998840,176.767426 148.927246,184.454803 
	C147.455215,195.014740 151.609070,203.170029 158.785461,210.317795 
	C159.713654,211.242264 160.563278,212.311386 161.195511,213.453934 
	C162.614838,216.018982 164.380753,215.917252 167.193542,215.642090 
	C174.278687,214.948975 181.469055,214.931030 188.597351,215.189896 
	C196.022339,215.459534 203.428711,216.320999 210.834198,217.019318 
	C215.270538,217.437637 219.681824,218.133362 224.121277,218.499496 
	C225.411819,218.605942 227.158890,218.437851 228.012161,217.652206 
	C231.272812,214.649948 234.618912,211.611450 237.217087,208.062317 
	C239.071182,205.529617 240.869217,202.139847 240.817078,199.165390 
	C240.556320,184.288635 240.792221,169.323990 236.478638,154.805176 
	C235.040833,149.965698 237.041870,148.236862 241.852783,149.409134 
	C247.323563,150.742188 249.114273,154.996216 249.882050,159.704361 
	C251.157257,167.524307 252.126480,175.401962 252.967514,183.282745 
	C253.848328,191.536209 255.794922,192.938034 262.951111,188.959488 
	C284.821808,176.800339 309.037354,171.310562 332.636108,164.055069 
	C335.640808,163.131256 338.677673,161.873596 341.753113,161.695984 
	C353.616852,161.010773 356.339844,152.224808 358.817017,143.108032 
	C359.202606,141.689011 359.386383,140.215164 359.530731,139.460449 
	C346.561493,125.694778 334.029205,112.178017 321.225952,98.922974 
	C316.897858,94.442169 311.658234,90.845230 307.292969,86.395287 
	C305.520264,84.588173 303.541840,81.120636 304.158722,79.221069 
	C305.424957,75.321983 309.046021,75.237961 312.248169,77.668800 
	C318.167938,82.162659 323.983795,86.793236 329.853882,91.352737 
	C339.396454,98.764801 348.945587,106.168404 358.512177,113.549393 
	C358.698334,113.693024 359.133301,113.514160 359.623840,113.470467 
	C358.646576,106.479340 357.576935,99.515457 356.721069,92.525398 
	C355.717590,84.329308 354.890961,76.111427 354.004547,67.901169 
	C353.188782,60.345104 352.282043,52.795650 351.678772,45.222305 
	C351.542145,43.506996 352.493927,41.704987 353.244110,38.772678 
	C359.397217,45.338284 362.525757,51.605621 363.900055,58.692978 
	C365.940491,69.215515 367.864929,79.764839 369.583954,90.344162 
	C371.225739,100.448174 372.323181,110.644852 374.152710,120.711227 
	C374.616608,123.263550 376.955872,125.475014 378.433441,127.843094 
	C378.949280,127.578278 379.465118,127.313454 379.980957,127.048637 
	C379.980957,113.428230 380.234558,99.799805 379.804199,86.193008 
	C379.695404,82.752998 377.105072,79.461639 376.172485,75.963997 
	C373.664520,66.557915 371.040527,57.153278 369.206726,47.605145 
	C367.326141,37.813328 363.739258,28.934860 358.244659,20.664957 
	C356.374115,17.849627 352.745789,13.879355 356.795563,11.225679 
	C360.519196,8.785725 364.104980,12.914199 365.765350,15.928426 
	C370.884888,25.222315 375.238220,34.935329 379.995941,44.432034 
	C389.550232,63.502918 393.032501,84.286171 397.220001,104.878510 
	C397.298798,105.266037 397.882141,105.550972 398.615051,105.941887 
	C399.000000,117.354225 399.000000,128.708450 398.662048,140.557983 
	C396.256042,143.296173 395.104828,145.434875 399.000000,147.000000 
	C399.000000,150.361282 399.000000,153.722580 399.000000,157.541931 
	C397.404022,159.760986 396.092133,161.965347 394.160767,163.202896 
	C387.349670,167.567276 380.463135,171.856689 373.333344,175.665604 
	C368.830200,178.071320 363.962250,179.992966 359.045898,181.380249 
	C351.485840,183.513519 350.536865,189.074280 349.894287,195.655670 
	C348.568451,209.235550 345.950623,222.631088 338.298798,234.267365 
	C332.637848,242.875992 324.142487,248.602936 315.634521,254.117752 
	C310.209534,257.634186 304.827972,261.314087 299.053345,264.163544 
	C294.558868,266.381287 289.532898,268.509491 284.660950,268.713409 
	C279.125641,268.945099 275.848816,271.036163 272.787384,275.231812 
	C268.207947,281.507812 263.135742,287.425415 258.209167,293.443054 
	C258.009216,293.687256 257.155945,293.396576 256.347961,292.833191 
	C256.421844,290.883453 256.754822,289.455627 257.374146,288.017029 
	C258.115570,287.711426 258.570618,287.416565 259.329224,286.969604 
	C263.247833,282.145721 267.103699,277.636993 270.409485,272.755768 
	C273.650574,267.970154 277.480835,265.213470 283.546265,265.808807 
	C285.268707,265.977844 287.134338,264.688080 289.314270,263.985657 
	C294.108612,264.253906 294.990997,260.419861 296.991882,258.175720 
	C296.996399,261.625732 298.657837,260.748932 300.194214,259.850037 
	C303.487244,257.923309 306.965515,256.219879 309.966003,253.904190 
	C318.193268,247.554581 327.473022,241.994095 334.030487,234.185089 
	C344.915314,221.222778 345.279877,204.183746 347.820343,188.212448 
	C347.946625,187.418518 347.303162,185.821701 346.779480,185.709183 
	C341.019379,184.471405 335.060699,182.047485 329.446594,182.650742 
	C314.788605,184.225815 303.613525,193.758575 290.732056,201.354538 
	C292.257294,201.778793 292.855255,201.945145 293.233643,202.416763 
	C289.755798,204.567703 286.497620,206.413361 282.866730,208.172546 
	C277.012665,211.902725 271.001434,215.165710 266.233917,219.728256 
	C262.989441,222.833237 261.486145,227.757614 258.951111,232.012543 
	C258.431580,232.426651 258.165222,232.696609 257.517334,232.979462 
	C251.219559,235.879852 245.728424,234.688843 241.029480,230.596878 
	C231.216812,222.051788 219.424622,220.411194 207.105316,219.927795 
	C198.822372,219.602783 190.568130,218.552933 182.285248,218.217316 
	C176.936569,218.000580 171.559311,218.488998 166.344727,218.656601 
	C165.660522,227.830093 156.506699,232.360886 150.048416,227.550827 
	C141.657944,221.301666 133.687805,214.490952 125.421623,208.070160 
	C123.427803,206.521469 120.981430,205.555405 118.409561,204.210007 
	C110.665359,198.806992 103.254768,193.515381 95.994316,187.935577 
	C96.025246,186.934311 96.159370,185.845261 95.746941,185.567383 
	C92.299850,183.244751 88.935509,180.676819 85.194939,178.938980 
	C78.442764,175.801956 71.568939,172.800278 64.482986,170.581970 
	C62.231911,169.877258 57.912094,170.972763 56.668060,172.741760 
	C52.593296,178.535980 52.014332,185.535828 53.172512,192.416092 
	C57.219250,216.456177 68.455200,236.497299 87.068245,252.350616 
	C93.521706,257.847229 100.063560,262.516632 109.412628,261.340393 
	C111.767685,261.044128 115.526810,263.088684 116.883499,265.191315 
	C123.008957,274.684601 128.477585,284.600281 134.237900,294.331207 
	C136.596161,298.315033 136.464676,301.812195 133.886505,305.920105 
	C130.857147,310.746918 128.170319,315.999786 126.525604,321.428619 
	C124.665192,327.569458 124.062347,334.100250 123.024780,340.479736 
	C119.140678,364.361267 115.083031,388.217957 111.554192,412.152313 
	C110.129372,421.816101 109.219040,431.662659 109.315392,441.413757 
	C109.411690,451.159698 110.690819,460.944366 112.112511,470.614899 
	C114.223366,484.973206 119.152557,498.316437 133.811508,504.060608 
	C142.288589,507.382385 151.764191,509.492065 160.838730,509.669067 
	C178.584274,510.015198 196.408630,509.176941 214.111603,507.737457 
	C224.109924,506.924438 234.032791,504.331329 243.800797,501.808716 
	C251.558655,499.805267 257.107300,494.546875 258.535156,486.418793 
	C260.138885,477.289764 261.959991,468.007629 261.857666,458.812469 
	C261.678741,442.729218 259.985046,426.667664 259.140411,410.585785 
	C257.972809,388.354156 257.051086,366.109772 255.930054,343.875580 
	C255.361526,332.599670 254.709946,321.324280 253.808075,310.071747 
	C253.613876,307.648621 252.180435,305.324768 251.472321,302.629272 
	C252.987213,300.163818 254.347626,298.024231 255.708038,295.884644 
	C256.137909,300.638855 256.657959,305.386932 256.981873,310.148346 
	C258.340942,330.126221 259.661102,350.106781 260.951813,370.089203 
	C261.368256,376.536926 261.677368,382.992065 261.989319,389.446045 
	C262.677338,403.682922 263.228882,417.927460 264.054230,432.156219 
	C264.436584,438.747528 265.970123,445.323029 265.829437,451.880981 
	C265.649292,460.277374 264.679016,468.708771 263.340454,477.010834 
	C262.378326,482.977936 261.106018,489.177521 258.464417,494.529205 
	C253.776123,504.027313 243.942291,505.951019 234.679794,507.903503 
	C227.747070,509.364899 220.648331,510.033630 213.634186,511.123962 
	C213.089340,511.208649 212.628860,511.836212 212.064575,512.605713 
	C189.979111,513.000000 167.958206,513.000000 145.468658,513.000000 
M360.130493,15.336729 
	C359.934998,15.130803 359.739502,14.924876 359.544006,14.718947 
	C359.637634,15.194781 359.731262,15.670615 359.952972,16.842863 
	C366.794922,27.061277 371.035828,38.211658 373.236603,50.365089 
	C374.824707,59.135201 377.075592,67.903252 380.167816,76.251083 
	C383.505707,85.262169 384.022644,94.349213 383.752899,103.682953 
	C383.517700,111.820663 383.212982,119.958847 383.183655,128.097717 
	C383.178497,129.530243 384.050842,131.290833 385.085876,132.339340 
	C387.847076,135.136597 390.917603,137.628571 394.096985,140.447403 
	C396.988281,132.652679 396.778259,124.567970 395.712158,116.801765 
	C391.208984,83.997856 382.663300,52.358738 366.426086,23.203478 
	C364.885406,20.437115 362.360199,18.219051 360.130493,15.336729 
M239.948334,152.654205 
	C239.843384,152.620026 239.738419,152.585846 239.633469,152.551666 
	C239.737915,152.716080 239.842361,152.880478 239.883408,153.879532 
	C241.482788,166.867950 243.165100,179.846924 244.648376,192.848587 
	C245.454681,199.916016 244.347580,206.455490 238.384689,211.337585 
	C236.587234,212.809235 235.035614,214.578537 233.342972,216.181473 
	C230.973480,218.425369 230.974640,220.688843 233.880280,222.172546 
	C238.587723,224.576294 243.379364,226.906708 248.345596,228.679382 
	C251.570953,229.830688 254.460922,228.529572 256.406464,225.343307 
	C257.959351,222.800125 259.620605,220.209717 261.720184,218.131775 
	C277.949158,202.070312 297.202423,190.662323 318.368774,182.515930 
	C326.415253,179.419006 334.827759,177.196121 343.435455,181.740631 
	C345.203217,182.673920 348.172607,182.637085 350.060547,181.823349 
	C361.657562,176.824768 373.287964,171.840195 384.549713,166.144058 
	C397.149719,159.771027 398.546875,150.030716 388.966339,139.567261 
	C387.511993,137.978897 385.959106,136.388580 384.183197,135.200760 
	C360.379028,119.279137 337.093079,102.683411 315.671143,83.592537 
	C313.786713,81.913162 311.257324,80.957489 309.027496,79.665688 
	C308.799438,80.052040 308.571411,80.438393 308.343353,80.824745 
	C319.201630,92.276924 329.920502,103.865547 340.958038,115.142258 
	C351.646545,126.062347 361.662445,137.709885 374.982056,145.819199 
	C380.182861,148.985596 379.405457,152.731277 373.699005,155.221329 
	C372.179260,155.884491 370.595337,156.423615 369.004272,156.896667 
	C355.462341,160.922989 341.907959,164.907379 328.365051,168.930435 
	C306.717010,175.361176 284.582581,180.442871 264.778198,191.988388 
	C263.088898,192.973190 261.029388,193.309540 259.166656,194.012772 
	C254.889175,195.627701 252.488037,193.510101 251.083511,189.808136 
	C250.444626,188.124207 250.196289,186.270996 249.928116,184.471130 
	C248.657272,175.941406 247.479355,167.397736 246.186020,158.871521 
	C245.661362,155.412827 243.989258,152.959045 239.948334,152.654205 
M157.002441,143.779877 
	C148.810623,148.099289 143.045349,154.473633 141.191284,163.691147 
	C140.115875,169.037552 139.784103,174.534286 139.135132,179.965454 
	C138.546967,184.887695 135.170761,187.339767 130.873535,186.724380 
	C125.073563,185.893799 119.122383,184.493515 113.830673,182.050034 
	C99.096397,175.246368 85.506531,166.052902 68.839157,163.580170 
	C58.706184,162.076889 49.220547,157.800369 43.070667,148.954971 
	C37.777397,141.341629 38.024136,141.018463 45.857220,135.714233 
	C62.535233,124.420601 79.204498,113.109314 96.064072,102.090973 
	C102.421234,97.936333 109.310844,94.599930 115.918289,90.821556 
	C117.130440,90.128410 118.152542,89.102913 119.262367,88.230827 
	C119.023483,87.714996 118.784599,87.199158 118.545715,86.683327 
	C116.239197,87.168434 113.758194,87.262703 111.654388,88.201889 
	C97.677147,94.441643 83.886887,101.109093 69.829781,107.158707 
	C53.943821,113.995407 37.660290,119.931427 21.929821,127.094048 
	C16.249372,129.680557 10.844302,133.983719 6.788701,138.756897 
	C1.204017,145.329712 3.259248,155.153320 11.088018,158.758606 
	C23.442110,164.447876 36.340004,168.970871 49.101265,173.737076 
	C50.277672,174.176437 52.986439,173.248749 53.516239,172.208496 
	C55.771412,167.780518 59.385929,166.287201 63.815872,167.040939 
	C67.862190,167.729401 72.304909,168.374435 75.652878,170.492752 
	C91.805687,180.712875 107.880081,191.094360 123.501991,202.100342 
	C131.352432,207.631149 137.976410,214.874664 145.575058,220.805511 
	C148.406265,223.015305 152.347931,224.485428 155.937286,224.875595 
	C160.918396,225.417053 162.824036,221.641632 159.944168,217.551346 
	C156.691010,212.930908 152.665649,208.816666 149.738327,204.017380 
	C147.765671,200.783264 146.072754,196.742157 146.077682,193.064514 
	C146.089661,184.131760 147.678787,175.199982 147.671204,166.268646 
	C147.663315,156.974487 151.202423,149.883606 158.547546,143.939346 
	C158.498505,143.713242 158.449448,143.487152 158.400406,143.261047 
	C158.167999,143.404282 157.935577,143.547531 157.002441,143.779877 
M20.215212,47.694408 
	C15.716990,61.630993 11.629587,75.544914 12.737785,90.572090 
	C13.219655,97.106247 11.707594,103.776970 11.233237,110.395126 
	C10.777413,116.754707 10.492287,123.126526 10.119152,129.722794 
	C18.079626,126.812279 24.201344,123.235809 22.144257,113.672081 
	C21.949207,112.765266 22.460922,111.721962 22.561802,110.733574 
	C23.622561,100.340790 25.421463,89.961105 22.434479,79.555031 
	C21.901672,77.698837 21.942492,75.563393 22.187712,73.615982 
	C24.993563,51.333374 28.172029,29.138931 38.932304,8.901931 
	C39.403812,8.015162 39.255779,6.798978 39.396339,5.736239 
	C29.401651,18.037685 24.511528,32.298943 20.215212,47.694408 
M368.045929,102.373642 
	C367.533661,98.930298 367.102081,95.472633 366.494080,92.046265 
	C364.588776,81.308739 362.765381,70.552826 360.593384,59.868446 
	C359.794128,55.936554 358.110718,52.184391 356.830627,48.350246 
	C356.257538,48.518330 355.684479,48.686413 355.111420,48.854500 
	C357.780426,70.530823 360.496094,92.201591 363.081085,113.887924 
	C363.631531,118.505745 366.235077,120.681549 370.988861,121.831879 
	C369.979980,115.301071 369.049286,109.276291 368.045929,102.373642 
M45.214390,73.744148 
	C41.299839,88.245255 37.385288,102.746361 33.470734,117.247467 
	C34.111465,117.681396 34.752197,118.115334 35.392929,118.549271 
	C37.457649,116.638107 40.762367,115.062958 41.386059,112.761314 
	C45.464672,97.709755 49.164101,82.545525 52.538353,67.318588 
	C53.669716,62.213127 53.488983,56.816906 53.907986,51.553589 
	C53.421631,51.487175 52.935276,51.420757 52.448921,51.354343 
	C50.127796,58.567574 47.806671,65.780800 45.214390,73.744148 
M366.957825,143.706467 
	C365.611328,142.872223 364.264801,142.037964 362.731873,141.088211 
	C361.043823,146.452225 359.491180,151.386093 357.617523,157.339981 
	C361.205017,156.276932 363.978180,155.835205 366.388824,154.653854 
	C370.226257,152.773300 370.736969,146.879089 366.957825,143.706467 
z"/>
<path fill="#000000" opacity="1.000000" stroke="none" 
	d="
M35.531342,1.000000 
	C34.588032,3.509943 32.961491,5.925134 31.803608,8.547276 
	C28.061703,17.021193 24.061487,25.418314 20.968035,34.131615 
	C17.321556,44.402637 14.390243,54.936787 11.423404,65.434448 
	C10.493152,68.725983 10.245900,72.255859 10.035704,75.697998 
	C8.947959,93.510704 8.213959,111.350136 6.748327,129.130112 
	C6.469200,132.516296 3.454199,135.676941 1.350739,138.970825 
	C1.000000,93.116608 1.000000,47.233219 1.000000,1.000000 
	C12.351832,1.000000 23.707258,1.000000 35.531342,1.000000 
z"/>
<path fill="#000000" opacity="1.000000" stroke="none" 
	d="
M399.000000,146.571533 
	C395.104828,145.434875 396.256042,143.296173 398.662048,141.026642 
	C399.000000,142.714355 399.000000,144.428711 399.000000,146.571533 
z"/>
<path fill="#F4F5F5" opacity="1.000000" stroke="none" 
	d="
M255.761627,295.528137 
	C254.347626,298.024231 252.987213,300.163818 251.211731,302.782990 
	C249.875122,304.214539 248.953506,305.166412 248.032028,306.118408 
	C244.784668,309.473267 240.772842,309.567749 239.236481,305.212097 
	C236.437973,297.278198 233.672897,288.901855 233.424896,280.634155 
	C233.223602,273.923584 236.603363,267.063660 238.638199,260.343628 
	C239.863785,256.296143 244.154556,254.716827 250.575592,255.123062 
	C254.874985,255.395081 254.466705,258.634979 255.078262,261.395203 
	C255.644150,263.949280 256.388733,266.463745 256.983826,269.361755 
	C256.867188,270.688690 256.821320,271.649506 256.767883,272.769287 
	C252.574234,269.530823 244.302155,269.076508 240.748001,271.731445 
	C238.022141,273.767670 234.755920,284.928986 236.234955,288.011505 
	C238.585709,292.910797 243.544083,293.304962 248.010712,293.884033 
	C252.021194,294.403992 252.651611,290.852173 253.283020,287.927399 
	C254.185608,283.746490 254.898544,279.524628 255.692474,275.320221 
	C256.157593,275.354858 256.622681,275.389496 257.087799,275.424164 
	C257.087799,279.625366 257.087799,283.826599 257.087769,288.027802 
	C256.754822,289.455627 256.421844,290.883453 256.130798,292.675842 
	C256.053528,293.750793 255.934372,294.461243 255.761627,295.528137 
z"/>
<path fill="#155F81" opacity="1.000000" stroke="none" 
	d="
M257.054626,268.995667 
	C256.388733,266.463745 255.644150,263.949280 255.078262,261.395203 
	C254.466705,258.634979 254.874985,255.395081 250.575592,255.123062 
	C244.154556,254.716827 239.863785,256.296143 238.638199,260.343628 
	C236.603363,267.063660 233.223602,273.923584 233.424896,280.634155 
	C233.672897,288.901855 236.437973,297.278198 239.236481,305.212097 
	C240.772842,309.567749 244.784668,309.473267 248.032028,306.118408 
	C248.953506,305.166412 249.875122,304.214539 251.057251,303.108887 
	C252.180435,305.324768 253.613876,307.648621 253.808075,310.071747 
	C254.709946,321.324280 255.361526,332.599670 255.930054,343.875580 
	C257.051086,366.109772 257.972809,388.354156 259.140411,410.585785 
	C259.985046,426.667664 261.678741,442.729218 261.857666,458.812469 
	C261.959991,468.007629 260.138885,477.289764 258.535156,486.418793 
	C257.107300,494.546875 251.558655,499.805267 243.800797,501.808716 
	C234.032791,504.331329 224.109924,506.924438 214.111603,507.737457 
	C196.408630,509.176941 178.584274,510.015198 160.838730,509.669067 
	C151.764191,509.492065 142.288589,507.382385 133.811508,504.060608 
	C119.152557,498.316437 114.223366,484.973206 112.112511,470.614899 
	C110.690819,460.944366 109.411690,451.159698 109.315392,441.413757 
	C109.219040,431.662659 110.129372,421.816101 111.554192,412.152313 
	C115.083031,388.217957 119.140678,364.361267 123.024780,340.479736 
	C124.062347,334.100250 124.665192,327.569458 126.525604,321.428619 
	C128.170319,315.999786 130.857147,310.746918 133.886505,305.920105 
	C136.464676,301.812195 136.596161,298.315033 134.237900,294.331207 
	C128.477585,284.600281 123.008957,274.684601 116.883499,265.191315 
	C115.526810,263.088684 111.767685,261.044128 109.412628,261.340393 
	C100.063560,262.516632 93.521706,257.847229 87.068245,252.350616 
	C68.455200,236.497299 57.219250,216.456177 53.172512,192.416092 
	C52.014332,185.535828 52.593296,178.535980 56.668060,172.741760 
	C57.912094,170.972763 62.231911,169.877258 64.482986,170.581970 
	C71.568939,172.800278 78.442764,175.801956 85.194939,178.938980 
	C88.935509,180.676819 92.299850,183.244751 95.746941,185.567383 
	C96.159370,185.845261 96.025246,186.934311 95.681351,187.755646 
	C86.651283,182.984818 78.060799,178.179199 67.514732,179.185089 
	C67.188118,179.521988 67.056427,179.752396 66.979546,180.001709 
	C66.980118,179.989548 66.991096,179.967789 66.609985,179.961426 
	C65.175758,180.686295 64.122643,181.417526 63.074959,182.090591 
	C63.080395,182.032425 63.192947,182.063782 62.817211,182.206085 
	C59.934666,185.939590 62.138203,191.688889 57.055202,194.518707 
	C57.956150,199.480698 56.753433,205.523636 62.081188,207.486664 
	C67.993126,209.664963 69.436897,213.960205 71.254349,219.076065 
	C73.299126,224.831802 75.337387,231.559799 79.608940,235.353333 
	C88.599792,243.338028 98.940392,249.842606 108.992455,256.557312 
	C110.879799,257.818024 114.660744,258.331940 116.426811,257.278137 
	C120.956322,254.575470 125.458435,251.315109 128.829895,247.315399 
	C132.870544,242.521744 132.822998,238.983887 126.473999,236.223358 
	C124.227318,235.246506 122.029434,234.157425 119.550850,232.998764 
	C120.639313,231.857407 121.242569,231.446365 121.521393,230.876572 
	C121.873207,230.157639 122.026665,229.319489 122.151520,228.515045 
	C123.456131,220.109558 121.788620,212.117203 118.743164,204.321426 
	C120.981430,205.555405 123.427803,206.521469 125.421623,208.070160 
	C133.687805,214.490952 141.657944,221.301666 150.048416,227.550827 
	C156.506699,232.360886 165.660522,227.830093 166.344727,218.656601 
	C171.559311,218.488998 176.936569,218.000580 182.285248,218.217316 
	C190.568130,218.552933 198.822372,219.602783 207.105316,219.927795 
	C219.424622,220.411194 231.216812,222.051788 241.029480,230.596878 
	C245.728424,234.688843 251.219559,235.879852 257.590393,233.374741 
	C262.568298,243.180573 267.050171,252.624512 271.686127,261.992218 
	C272.098541,262.825592 273.487915,263.600983 274.466217,263.656891 
	C279.280975,263.932037 284.110199,263.955200 288.934296,264.067322 
	C287.134338,264.688080 285.268707,265.977844 283.546265,265.808807 
	C277.480835,265.213470 273.650574,267.970154 270.409485,272.755768 
	C267.103699,277.636993 263.247833,282.145721 259.321289,286.499756 
	C258.998932,281.251862 259.075562,276.318451 258.891266,271.394775 
	C258.860535,270.573303 257.695526,269.794312 257.054626,268.995667 
M229.893082,335.198456 
	C229.893082,335.198456 229.602707,335.014740 229.565155,334.626801 
	C229.432648,334.387360 229.237152,334.222626 228.853638,333.333740 
	C228.257980,332.126434 227.662323,330.919128 227.159393,329.708282 
	C227.159393,329.708282 227.172104,329.863617 226.649231,329.229034 
	C226.446503,329.044586 226.243774,328.860138 226.130630,328.400055 
	C226.130630,328.400055 225.919250,328.249420 225.919250,328.249420 
	C225.919250,328.249420 226.031174,328.583710 225.870117,327.772003 
	C224.250122,325.846710 222.630142,323.921448 220.782394,321.421387 
	C220.191559,321.276031 219.600723,321.130676 218.788757,320.312256 
	C216.460648,319.219635 214.132538,318.127014 211.350067,316.697083 
	C210.283447,316.804810 209.216843,316.912537 207.339127,316.975128 
	C206.539688,317.101868 205.740265,317.228607 204.385300,317.268250 
	C203.697098,317.533295 203.008896,317.798340 201.381104,318.067535 
	C200.494858,318.307831 199.608597,318.548096 198.375366,318.646240 
	C198.039154,318.792023 197.702927,318.937775 196.462769,319.106720 
	C195.909821,319.313141 195.356888,319.519562 194.528870,319.600311 
	C194.308487,319.647125 194.166077,319.778564 193.212463,320.015381 
	C191.371750,320.631470 189.531021,321.247528 187.784790,321.945526 
	C187.784790,321.945526 187.848709,321.832642 187.277695,322.337097 
	C184.847153,324.879242 182.416611,327.421417 179.409241,330.207153 
	C179.303207,330.807526 179.197159,331.407867 178.367554,332.232605 
	C177.152481,334.461090 175.937424,336.689606 174.787872,338.837280 
	C174.787872,338.837280 174.809906,338.796875 174.426285,339.579865 
	C173.523621,341.024933 172.620956,342.470001 171.784058,343.831482 
	C171.784058,343.831482 171.798111,343.790131 171.535706,344.510651 
	C171.362717,344.698853 171.189743,344.887024 170.496201,345.075775 
	C170.439651,345.373505 170.383087,345.671234 170.143677,346.809418 
	C169.678360,347.517822 169.213058,348.226196 168.743805,348.829407 
	C168.743805,348.829407 168.886856,348.841095 168.591599,349.578613 
	C168.407791,349.769226 168.223984,349.959839 167.429489,350.216339 
	C167.381531,350.813446 167.333572,351.410522 166.565994,352.378815 
	C165.957733,353.564087 165.349472,354.749329 164.750793,355.827393 
	C164.750793,355.827393 164.879883,355.884949 164.599091,356.614990 
	C164.413925,356.798553 164.228775,356.982086 163.432724,357.222900 
	C163.365662,357.819580 163.298599,358.416260 162.594025,359.337830 
	C162.065964,360.906097 161.537903,362.474335 160.401672,364.479218 
	C159.279587,364.651367 158.157501,364.823486 157.044113,364.267822 
	C156.212494,362.807861 155.380875,361.347900 153.847992,358.656799 
	C151.029892,365.858582 148.641769,371.687317 146.459885,377.592285 
	C141.293686,391.573944 136.139893,405.561401 131.158188,419.609314 
	C129.060944,425.523285 129.810394,426.951385 136.218079,427.912781 
	C145.448242,429.297577 154.767136,430.091064 164.674805,431.665894 
	C175.556091,431.429016 186.437393,431.192139 197.637634,430.722900 
	C197.637634,430.722900 197.940826,430.975464 198.455276,431.666565 
	C209.003983,431.761536 219.552719,431.895691 230.101318,431.886444 
	C231.078720,431.885590 232.055328,430.973877 233.549042,430.185120 
	C235.408096,429.929474 237.290710,429.785187 239.121918,429.397797 
	C245.267441,428.097748 251.391510,419.257568 248.524933,414.458466 
	C242.450577,404.289093 237.387848,393.337952 228.452789,384.677948 
	C228.332504,384.474152 228.164886,384.322723 228.022263,384.107635 
	C228.022263,384.107635 227.905838,384.036011 227.818405,383.357422 
	C227.875931,382.237213 227.933456,381.117035 228.000000,380.001221 
	C228.000000,380.001221 227.998520,379.992554 228.529617,379.915192 
	C228.671967,379.607361 228.814316,379.299561 229.014130,378.980164 
	C229.014130,378.980164 228.986908,378.928253 229.469391,378.700806 
	C229.819565,378.433350 230.169739,378.165894 231.244110,377.789612 
	C232.817291,375.158844 234.390457,372.528107 236.436798,369.547180 
	C235.941864,363.451019 235.446915,357.354858 234.966675,350.452148 
	C234.639847,350.123718 234.313019,349.795288 233.980713,349.424011 
	C233.980713,349.424011 234.014008,349.444397 234.406143,349.082123 
	C234.324829,348.923828 234.243530,348.765503 234.589172,348.104065 
	C234.390701,347.408722 234.192230,346.713348 233.997040,345.993774 
	C233.997040,345.993774 233.973923,346.003235 233.872589,345.309052 
	C233.578888,344.546783 233.285187,343.784515 232.993958,342.992859 
	C232.993958,342.992859 232.968552,343.008636 232.819839,342.525574 
	C232.782288,342.361359 232.744751,342.197113 232.738693,341.321075 
	C232.133545,340.057983 231.528412,338.794891 231.165802,337.332916 
	C231.165802,337.332916 231.312271,337.597382 231.312271,337.597382 
	C231.312271,337.597382 230.920334,337.549042 230.322327,336.564545 
	C230.213791,336.196228 230.105255,335.827942 230.006363,335.617676 
	C230.006363,335.617676 229.965729,335.534332 229.893082,335.198456 
M156.391769,301.923523 
	C159.147095,299.870026 162.057968,297.992950 164.626770,295.727936 
	C170.807373,290.278320 174.032364,283.709442 170.993073,275.387634 
	C168.718445,269.159576 166.370468,262.936798 163.571396,256.937317 
	C162.896072,255.489838 160.280563,254.094742 158.603699,254.147644 
	C155.276871,254.252594 152.010086,255.757141 148.668259,256.004272 
	C143.143753,256.412781 141.220367,259.933105 140.232452,264.557434 
	C137.849762,275.710510 138.810043,286.523987 142.819717,297.254913 
	C146.072006,305.958923 145.815689,308.348663 156.391769,301.923523 
z"/>
<path fill="#009702" opacity="1.000000" stroke="none" 
	d="
M158.211441,144.194565 
	C151.202423,149.883606 147.663315,156.974487 147.671204,166.268646 
	C147.678787,175.199982 146.089661,184.131760 146.077682,193.064514 
	C146.072754,196.742157 147.765671,200.783264 149.738327,204.017380 
	C152.665649,208.816666 156.691010,212.930908 159.944168,217.551346 
	C162.824036,221.641632 160.918396,225.417053 155.937286,224.875595 
	C152.347931,224.485428 148.406265,223.015305 145.575058,220.805511 
	C137.976410,214.874664 131.352432,207.631149 123.501991,202.100342 
	C107.880081,191.094360 91.805687,180.712875 75.652878,170.492752 
	C72.304909,168.374435 67.862190,167.729401 63.815872,167.040939 
	C59.385929,166.287201 55.771412,167.780518 53.516239,172.208496 
	C52.986439,173.248749 50.277672,174.176437 49.101265,173.737076 
	C36.340004,168.970871 23.442110,164.447876 11.088018,158.758606 
	C3.259248,155.153320 1.204017,145.329712 6.788701,138.756897 
	C10.844302,133.983719 16.249372,129.680557 21.929821,127.094048 
	C37.660290,119.931427 53.943821,113.995407 69.829781,107.158707 
	C83.886887,101.109093 97.677147,94.441643 111.654388,88.201889 
	C113.758194,87.262703 116.239197,87.168434 118.545715,86.683327 
	C118.784599,87.199158 119.023483,87.714996 119.262367,88.230827 
	C118.152542,89.102913 117.130440,90.128410 115.918289,90.821556 
	C109.310844,94.599930 102.421234,97.936333 96.064072,102.090973 
	C79.204498,113.109314 62.535233,124.420601 45.857220,135.714233 
	C38.024136,141.018463 37.777397,141.341629 43.070667,148.954971 
	C49.220547,157.800369 58.706184,162.076889 68.839157,163.580170 
	C85.506531,166.052902 99.096397,175.246368 113.830673,182.050034 
	C119.122383,184.493515 125.073563,185.893799 130.873535,186.724380 
	C135.170761,187.339767 138.546967,184.887695 139.135132,179.965454 
	C139.784103,174.534286 140.115875,169.037552 141.191284,163.691147 
	C143.045349,154.473633 148.810623,148.099289 157.478577,143.862579 
	C157.954697,143.945297 158.211441,144.194565 158.211441,144.194565 
z"/>
<path fill="#009702" opacity="1.000000" stroke="none" 
	d="
M240.053162,152.937866 
	C243.989258,152.959045 245.661362,155.412827 246.186020,158.871521 
	C247.479355,167.397736 248.657272,175.941406 249.928116,184.471130 
	C250.196289,186.270996 250.444626,188.124207 251.083511,189.808136 
	C252.488037,193.510101 254.889175,195.627701 259.166656,194.012772 
	C261.029388,193.309540 263.088898,192.973190 264.778198,191.988388 
	C284.582581,180.442871 306.717010,175.361176 328.365051,168.930435 
	C341.907959,164.907379 355.462341,160.922989 369.004272,156.896667 
	C370.595337,156.423615 372.179260,155.884491 373.699005,155.221329 
	C379.405457,152.731277 380.182861,148.985596 374.982056,145.819199 
	C361.662445,137.709885 351.646545,126.062347 340.958038,115.142258 
	C329.920502,103.865547 319.201630,92.276924 308.343353,80.824745 
	C308.571411,80.438393 308.799438,80.052040 309.027496,79.665688 
	C311.257324,80.957489 313.786713,81.913162 315.671143,83.592537 
	C337.093079,102.683411 360.379028,119.279137 384.183197,135.200760 
	C385.959106,136.388580 387.511993,137.978897 388.966339,139.567261 
	C398.546875,150.030716 397.149719,159.771027 384.549713,166.144058 
	C373.287964,171.840195 361.657562,176.824768 350.060547,181.823349 
	C348.172607,182.637085 345.203217,182.673920 343.435455,181.740631 
	C334.827759,177.196121 326.415253,179.419006 318.368774,182.515930 
	C297.202423,190.662323 277.949158,202.070312 261.720184,218.131775 
	C259.620605,220.209717 257.959351,222.800125 256.406464,225.343307 
	C254.460922,228.529572 251.570953,229.830688 248.345596,228.679382 
	C243.379364,226.906708 238.587723,224.576294 233.880280,222.172546 
	C230.974640,220.688843 230.973480,218.425369 233.342972,216.181473 
	C235.035614,214.578537 236.587234,212.809235 238.384689,211.337585 
	C244.347580,206.455490 245.454681,199.916016 244.648376,192.848587 
	C243.165100,179.846924 241.482788,166.867950 239.942902,153.436661 
	C240.002396,152.993790 240.053162,152.937866 240.053162,152.937866 
z"/>
<path fill="#F9FAFA" opacity="1.000000" stroke="none" 
	d="
M289.314270,263.985657 
	C284.110199,263.955200 279.280975,263.932037 274.466217,263.656891 
	C273.487915,263.600983 272.098541,262.825592 271.686127,261.992218 
	C267.050171,252.624512 262.568298,243.180573 257.971954,233.361847 
	C258.165222,232.696609 258.431580,232.426651 259.390472,232.042084 
	C262.069885,232.046448 264.067169,232.074631 266.041779,232.300919 
	C272.776794,233.072678 277.720917,229.442612 277.296509,222.948151 
	C277.003632,218.466568 278.649780,215.317856 281.061890,212.078262 
	C281.930573,210.911545 282.521667,209.538116 283.239410,208.259018 
	C286.497620,206.413361 289.755798,204.567703 293.574280,202.426041 
	C297.907684,200.135361 301.484253,197.475754 305.496429,196.289536 
	C312.992065,194.073425 320.678925,192.277023 328.410339,191.183319 
	C332.171570,190.651215 336.077911,192.075150 337.085205,197.045425 
	C339.047333,206.727463 338.355133,215.502548 329.891327,222.207626 
	C326.581787,224.829468 323.804749,227.825348 325.677826,232.700958 
	C325.929810,233.356812 325.451233,234.632950 324.887726,235.205017 
	C322.104553,238.030487 319.333740,240.905334 316.268280,243.407120 
	C311.336029,247.432388 306.176117,251.178696 300.784851,255.004333 
	C299.946625,255.294342 299.435974,255.622879 298.962585,255.963867 
	C298.999847,255.976318 298.957397,255.910187 298.674866,255.947662 
	C298.230835,256.303955 298.069336,256.622772 297.947083,256.963745 
	C297.986298,256.985901 297.943329,256.906738 297.658081,256.936920 
	C297.209900,257.290771 297.046967,257.614410 296.925537,257.913940 
	C296.967072,257.889801 296.909363,257.813049 296.909363,257.813049 
	C294.990997,260.419861 294.108612,264.253906 289.314270,263.985657 
M285.321259,233.835571 
	C283.735901,234.823471 282.150543,235.811371 280.092255,237.094009 
	C289.946106,244.713242 300.936981,240.593994 310.849091,242.619919 
	C311.590149,242.771393 312.485779,242.166458 313.309570,241.913147 
	C313.023010,241.288635 312.736420,240.664139 312.449829,240.039642 
	C308.895782,238.653046 305.325684,237.305527 301.797791,235.855316 
	C300.781525,235.437531 299.228149,234.858612 299.076477,234.117188 
	C298.779724,232.666611 298.731079,230.463028 299.597870,229.627762 
	C301.233551,228.051529 303.507507,227.027145 305.662323,226.120972 
	C312.028320,223.443924 318.757385,221.303085 322.044525,214.411133 
	C322.604553,213.237015 322.550568,211.770020 322.780212,210.438324 
	C322.332855,210.206573 321.885498,209.974823 321.438141,209.743057 
	C318.418121,214.067062 315.213318,215.580658 310.468781,212.256790 
	C308.366028,210.783707 305.790100,212.172836 306.118103,215.434311 
	C306.411865,218.355453 304.934265,219.137650 302.544312,220.318909 
	C298.229797,222.451492 294.333649,223.166855 290.007568,218.976471 
	C289.669098,223.885284 289.419373,227.507111 289.123627,231.796494 
	C288.569794,232.110687 287.295685,232.833496 285.321259,233.835571 
z"/>
<path fill="#F9FAFA" opacity="1.000000" stroke="none" 
	d="
M67.655418,179.047531 
	C78.060799,178.179199 86.651283,182.984818 95.531219,188.043854 
	C103.254768,193.515381 110.665359,198.806992 118.409561,204.210007 
	C121.788620,212.117203 123.456131,220.109558 122.151520,228.515045 
	C122.026665,229.319489 121.873207,230.157639 121.521393,230.876572 
	C121.242569,231.446365 120.639313,231.857407 119.550850,232.998764 
	C122.029434,234.157425 124.227318,235.246506 126.473999,236.223358 
	C132.822998,238.983887 132.870544,242.521744 128.829895,247.315399 
	C125.458435,251.315109 120.956322,254.575470 116.426811,257.278137 
	C114.660744,258.331940 110.879799,257.818024 108.992455,256.557312 
	C98.940392,249.842606 88.599792,243.338028 79.608940,235.353333 
	C75.337387,231.559799 73.299126,224.831802 71.254349,219.076065 
	C69.436897,213.960205 67.993126,209.664963 62.081188,207.486664 
	C56.753433,205.523636 57.956150,199.480698 57.434914,194.404999 
	C62.070705,194.033127 63.157696,191.780716 62.708542,187.912521 
	C62.487331,186.007385 63.007992,184.016083 63.192947,182.063782 
	C63.192947,182.063782 63.080395,182.032425 63.414749,182.044006 
	C64.829765,181.359665 65.910431,180.663727 66.991096,179.967789 
	C66.991096,179.967789 66.980118,179.989548 67.105988,179.846375 
	C67.337570,179.461716 67.478752,179.243149 67.655418,179.047531 
M104.669617,221.709229 
	C103.486122,221.272751 102.302635,220.836273 100.166565,220.048477 
	C103.187233,216.613129 105.808334,213.632217 109.342300,209.613098 
	C106.225838,209.613098 103.956696,208.976624 102.415962,209.764526 
	C100.188354,210.903702 98.211380,212.853943 96.620071,214.850723 
	C93.120628,219.241760 89.387413,220.584229 84.933601,216.490097 
	C80.941628,220.983765 80.921875,225.789886 85.638313,228.347015 
	C93.514977,232.617538 101.837296,236.076889 110.053680,239.692093 
	C110.813148,240.026260 112.674255,239.315994 113.096222,238.567642 
	C113.564354,237.737396 113.363770,235.594971 112.765114,235.261597 
	C110.283546,233.879669 107.595879,232.797104 104.881706,231.921265 
	C101.366158,230.786850 97.539085,230.256882 95.441002,225.196014 
	C100.153336,225.196014 103.907059,225.196014 108.460373,225.196014 
	C106.945221,223.449799 106.189003,222.578247 104.669617,221.709229 
M89.184494,203.266174 
	C87.548737,203.266174 85.912979,203.266174 83.441666,203.266174 
	C83.407402,203.192810 83.008827,201.690857 82.111229,200.599197 
	C81.206978,199.499466 79.750671,198.052200 78.638885,198.135010 
	C77.357048,198.230515 75.684540,199.618301 75.150826,200.861099 
	C74.810005,201.654724 75.999840,203.414383 76.896294,204.373871 
	C79.807755,207.490143 82.900269,210.437271 86.038307,213.564346 
	C88.046501,211.200287 92.081703,208.914963 89.184494,203.266174 
z"/>
<path fill="#009602" opacity="1.000000" stroke="none" 
	d="
M20.339922,47.311989 
	C24.511528,32.298943 29.401651,18.037685 39.396339,5.736239 
	C39.255779,6.798978 39.403812,8.015162 38.932304,8.901931 
	C28.172029,29.138931 24.993563,51.333374 22.187712,73.615982 
	C21.942492,75.563393 21.901672,77.698837 22.434479,79.555031 
	C25.421463,89.961105 23.622561,100.340790 22.561802,110.733574 
	C22.460922,111.721962 21.949207,112.765266 22.144257,113.672081 
	C24.201344,123.235809 18.079626,126.812279 10.119152,129.722794 
	C10.492287,123.126526 10.777413,116.754707 11.233237,110.395126 
	C11.707594,103.776970 13.219655,97.106247 12.737785,90.572090 
	C11.629587,75.544914 15.716990,61.630993 20.339922,47.311989 
z"/>
<path fill="#145C7D" opacity="1.000000" stroke="none" 
	d="
M301.112396,255.042877 
	C306.176117,251.178696 311.336029,247.432388 316.268280,243.407120 
	C319.333740,240.905334 322.104553,238.030487 324.887726,235.205017 
	C325.451233,234.632950 325.929810,233.356812 325.677826,232.700958 
	C323.804749,227.825348 326.581787,224.829468 329.891327,222.207626 
	C338.355133,215.502548 339.047333,206.727463 337.085205,197.045425 
	C336.077911,192.075150 332.171570,190.651215 328.410339,191.183319 
	C320.678925,192.277023 312.992065,194.073425 305.496429,196.289536 
	C301.484253,197.475754 297.907684,200.135361 293.793884,202.120758 
	C292.855255,201.945145 292.257294,201.778793 290.732056,201.354538 
	C303.613525,193.758575 314.788605,184.225815 329.446594,182.650742 
	C335.060699,182.047485 341.019379,184.471405 346.779480,185.709183 
	C347.303162,185.821701 347.946625,187.418518 347.820343,188.212448 
	C345.279877,204.183746 344.915314,221.222778 334.030487,234.185089 
	C327.473022,241.994095 318.193268,247.554581 309.966003,253.904190 
	C306.965515,256.219879 303.487244,257.923309 300.194214,259.850037 
	C298.657837,260.748932 296.996399,261.625732 296.991882,258.175720 
	C296.909363,257.813049 296.967072,257.889801 297.234314,257.919922 
	C297.648834,257.602264 297.796082,257.254486 297.943329,256.906738 
	C297.943329,256.906738 297.986298,256.985901 298.255524,256.970093 
	C298.668945,256.606262 298.813171,256.258240 298.957397,255.910187 
	C298.957397,255.910187 298.999847,255.976318 299.287292,255.999893 
	C300.087280,255.696609 300.599854,255.369736 301.112396,255.042877 
z"/>
<path fill="#009603" opacity="1.000000" stroke="none" 
	d="
M360.292084,15.746435 
	C362.360199,18.219051 364.885406,20.437115 366.426086,23.203478 
	C382.663300,52.358738 391.208984,83.997856 395.712158,116.801765 
	C396.778259,124.567970 396.988281,132.652679 394.096985,140.447403 
	C390.917603,137.628571 387.847076,135.136597 385.085876,132.339340 
	C384.050842,131.290833 383.178497,129.530243 383.183655,128.097717 
	C383.212982,119.958847 383.517700,111.820663 383.752899,103.682953 
	C384.022644,94.349213 383.505707,85.262169 380.167816,76.251083 
	C377.075592,67.903252 374.824707,59.135201 373.236603,50.365089 
	C371.035828,38.211658 366.794922,27.061277 360.005554,16.394463 
	C360.058136,15.946063 360.292084,15.746436 360.292084,15.746435 
z"/>
<path fill="#155C7C" opacity="1.000000" stroke="none" 
	d="
M256.983826,269.361755 
	C257.695526,269.794312 258.860535,270.573303 258.891266,271.394775 
	C259.075562,276.318451 258.998932,281.251862 259.017700,286.651855 
	C258.570618,287.416565 258.115570,287.711426 257.374146,288.017029 
	C257.087799,283.826599 257.087799,279.625366 257.087799,275.424164 
	C256.622681,275.389496 256.157593,275.354858 255.692474,275.320221 
	C254.898544,279.524628 254.185608,283.746490 253.283020,287.927399 
	C252.651611,290.852173 252.021194,294.403992 248.010712,293.884033 
	C243.544083,293.304962 238.585709,292.910797 236.234955,288.011505 
	C234.755920,284.928986 238.022141,273.767670 240.748001,271.731445 
	C244.302155,269.076508 252.574234,269.530823 256.767883,272.769287 
	C256.821320,271.649506 256.867188,270.688690 256.983826,269.361755 
z"/>
<path fill="#009404" opacity="1.000000" stroke="none" 
	d="
M368.082275,102.812576 
	C369.049286,109.276291 369.979980,115.301071 370.988861,121.831879 
	C366.235077,120.681549 363.631531,118.505745 363.081085,113.887924 
	C360.496094,92.201591 357.780426,70.530823 355.111420,48.854500 
	C355.684479,48.686413 356.257538,48.518330 356.830627,48.350246 
	C358.110718,52.184391 359.794128,55.936554 360.593384,59.868446 
	C362.765381,70.552826 364.588776,81.308739 366.494080,92.046265 
	C367.102081,95.472633 367.533661,98.930298 368.082275,102.812576 
z"/>
<path fill="#009404" opacity="1.000000" stroke="none" 
	d="
M45.349968,73.369087 
	C47.806671,65.780800 50.127796,58.567574 52.448921,51.354343 
	C52.935276,51.420757 53.421631,51.487175 53.907986,51.553589 
	C53.488983,56.816906 53.669716,62.213127 52.538353,67.318588 
	C49.164101,82.545525 45.464672,97.709755 41.386059,112.761314 
	C40.762367,115.062958 37.457649,116.638107 35.392929,118.549271 
	C34.752197,118.115334 34.111465,117.681396 33.470734,117.247467 
	C37.385288,102.746361 41.299839,88.245255 45.349968,73.369087 
z"/>
<path fill="#165D7D" opacity="1.000000" stroke="none" 
	d="
M282.866730,208.172546 
	C282.521667,209.538116 281.930573,210.911545 281.061890,212.078262 
	C278.649780,215.317856 277.003632,218.466568 277.296509,222.948151 
	C277.720917,229.442612 272.776794,233.072678 266.041779,232.300919 
	C264.067169,232.074631 262.069885,232.046448 259.643616,231.897934 
	C261.486145,227.757614 262.989441,222.833237 266.233917,219.728256 
	C271.001434,215.165710 277.012665,211.902725 282.866730,208.172546 
z"/>
<path fill="#009404" opacity="1.000000" stroke="none" 
	d="
M367.262848,143.921936 
	C370.736969,146.879089 370.226257,152.773300 366.388824,154.653854 
	C363.978180,155.835205 361.205017,156.276932 357.617523,157.339981 
	C359.491180,151.386093 361.043823,146.452225 362.731873,141.088211 
	C364.264801,142.037964 365.611328,142.872223 367.262848,143.921936 
z"/>
<path fill="#009603" opacity="1.000000" stroke="none" 
	d="
M359.941528,16.046255 
	C359.731262,15.670615 359.637634,15.194781 359.544006,14.718948 
	C359.739502,14.924876 359.934998,15.130803 360.211304,15.541582 
	C360.292084,15.746436 360.058136,15.946063 359.941528,16.046255 
z"/>
<path fill="#009702" opacity="1.000000" stroke="none" 
	d="
M157.828934,143.818039 
	C157.935577,143.547531 158.167999,143.404282 158.400406,143.261047 
	C158.449448,143.487152 158.498505,143.713242 158.379486,144.066956 
	C158.211441,144.194565 157.954697,143.945297 157.828934,143.818039 
z"/>
<path fill="#009702" opacity="1.000000" stroke="none" 
	d="
M239.974594,153.019348 
	C239.842361,152.880478 239.737915,152.716080 239.633469,152.551666 
	C239.738419,152.585846 239.843384,152.620026 240.000748,152.796036 
	C240.053162,152.937866 240.002396,152.993790 239.974594,153.019348 
z"/>
<path fill="#FCFCFC" opacity="1.000000" stroke="none" 
	d="
M204.940826,317.355347 
	C205.740265,317.228607 206.539688,317.101868 208.108765,317.010803 
	C209.853760,317.042480 210.829086,317.038422 211.804428,317.034393 
	C214.132538,318.127014 216.460648,319.219635 219.056274,320.904907 
	C219.885910,321.663788 220.448029,321.829987 221.010162,321.996185 
	C222.630142,323.921448 224.250122,325.846710 225.942291,328.168060 
	C226.014481,328.564117 226.041031,328.675690 226.041031,328.675690 
	C226.243774,328.860138 226.446503,329.044586 226.898499,329.514526 
	C227.147781,329.800018 227.066650,329.711823 227.066650,329.711823 
	C227.662323,330.919128 228.257980,332.126434 228.971268,333.911011 
	C229.203857,334.718719 229.375137,334.894196 229.602707,335.014740 
	C229.602707,335.014740 229.893082,335.198456 229.947250,335.362671 
	C230.001419,335.526886 229.996719,335.459625 229.996704,335.459625 
	C230.105255,335.827942 230.213791,336.196228 230.649429,337.050873 
	C230.976532,337.537201 230.923264,337.531799 230.923264,337.531799 
	C231.528412,338.794891 232.133545,340.057983 232.593796,341.798828 
	C232.622116,342.520630 232.795334,342.764618 232.968552,343.008636 
	C232.968552,343.008636 232.993958,342.992859 232.991821,343.343536 
	C233.317749,344.463898 233.645844,345.233551 233.973938,346.003235 
	C233.973923,346.003235 233.997040,345.993774 234.001556,346.437866 
	C234.058136,347.457031 234.110168,348.032135 234.162201,348.607208 
	C234.243530,348.765503 234.324829,348.923828 233.879578,349.596222 
	C231.247391,347.655457 229.141769,345.200592 226.976227,342.624451 
	C226.775681,342.257690 226.572678,342.085968 226.166901,341.997559 
	C226.026489,342.007141 225.986618,341.728485 225.793915,341.520630 
	C225.048035,341.216217 224.494843,341.119629 223.615860,341.017578 
	C222.863235,340.947815 222.436401,340.883514 222.008209,340.467255 
	C222.004974,339.411316 222.003067,338.707306 221.949814,337.624237 
	C221.636749,336.542664 221.375015,335.840149 221.048096,334.951630 
	C220.704590,334.503906 220.426254,334.242218 219.775085,333.974243 
	C218.276184,332.572693 217.150101,331.177429 215.905746,329.550537 
	C215.264816,328.878021 214.742142,328.437164 214.119446,328.010620 
	C214.019424,328.024933 213.988205,327.825256 213.822571,327.601105 
	C213.124954,327.243927 212.592987,327.110901 211.703003,326.970673 
	C209.884705,326.221069 208.424438,325.478668 206.691940,324.512756 
	C204.308945,324.702698 202.198151,325.116180 199.809433,325.770813 
	C196.012177,328.674164 192.492874,331.336334 188.720917,334.162476 
	C188.316589,334.895111 188.164902,335.463776 187.939606,336.314331 
	C187.582245,337.061340 187.298508,337.526428 186.736115,338.113098 
	C185.630814,339.100922 184.804169,339.967163 183.914368,341.211548 
	C183.190826,343.237427 182.530441,344.885193 181.897278,346.527588 
	C181.924484,346.522247 181.909424,346.486938 181.567978,346.622162 
	C178.688660,350.530396 176.150787,354.303375 173.407562,358.382690 
	C173.346802,361.103241 173.491379,363.517487 173.759125,366.251770 
	C174.254135,367.376312 174.625977,368.180847 175.000000,369.220703 
	C175.337921,369.629181 175.673691,369.802307 176.349396,370.083618 
	C178.467178,371.153748 180.244995,372.115692 182.213409,373.309692 
	C186.052429,372.560791 186.447311,371.705139 183.951233,369.659607 
	C182.761124,369.420166 181.894516,369.009125 181.032974,368.287384 
	C181.029495,367.355743 181.020920,366.734772 181.220703,365.825806 
	C184.700104,364.500153 187.098434,362.949738 188.119843,359.136841 
	C188.633881,357.217987 191.317856,355.880402 193.149048,354.451721 
	C193.492798,354.828033 193.747818,354.948700 194.288971,355.055908 
	C194.690948,355.416321 194.846497,355.706238 195.060150,356.194489 
	C195.243988,356.650024 195.434250,356.843964 195.767792,357.312622 
	C195.813812,358.108582 195.781097,358.566467 195.550430,359.209778 
	C195.228668,359.916016 195.104874,360.436890 194.979462,360.983551 
	C194.977859,361.009369 194.941727,360.972351 194.584595,360.964600 
	C192.818954,361.368958 191.410461,361.781067 189.685211,362.510651 
	C188.110901,367.053650 188.881516,370.800690 192.101440,374.213501 
	C192.392319,374.706268 192.644897,374.899384 192.985992,375.017212 
	C193.013794,375.021362 192.985062,375.069702 193.162506,375.314117 
	C193.916534,375.696320 194.493088,375.834106 195.322235,376.033508 
	C195.732925,376.166138 195.891037,376.237183 196.381683,376.541504 
	C201.461273,376.612823 206.208313,376.450867 211.346832,376.190063 
	C212.544846,376.068329 213.351334,376.045471 214.397568,376.028717 
	C215.060623,375.843292 215.483948,375.651794 216.260498,375.296356 
	C217.130554,375.088470 217.647369,375.044525 218.345718,374.934357 
	C218.756134,374.732391 218.927887,374.544403 219.005737,374.215607 
	C218.968948,374.127014 219.142349,374.044922 219.414154,374.021301 
	C220.131012,373.724274 220.576065,373.450897 221.029251,373.089539 
	C221.037369,373.001556 221.212845,373.022430 221.413025,372.873199 
	C221.770172,372.258728 221.927124,371.793518 222.146545,371.028137 
	C222.525620,370.491760 222.842239,370.255493 223.380646,369.843628 
	C223.740311,369.130005 223.878189,368.592010 224.062592,367.768494 
	C224.183350,367.305023 224.257599,367.127045 224.523422,366.749237 
	C224.581482,365.714752 224.447968,364.880096 224.188385,363.689301 
	C223.049118,362.349213 222.035919,361.365295 220.985855,360.149597 
	C220.666672,359.360870 220.384338,358.803894 220.132126,358.139923 
	C220.162247,358.032928 220.384521,358.028107 220.530975,357.928070 
	C220.856461,357.663879 220.980286,357.465332 221.010529,357.166473 
	C220.972168,357.100616 221.103683,357.023529 221.284378,356.935516 
	C221.696457,356.697083 221.870148,356.496674 222.367004,356.151794 
	C224.463730,355.449127 226.179596,354.840942 227.977234,354.807892 
	C228.186218,355.748840 228.313416,356.114624 228.299408,356.738281 
	C227.651169,357.254944 227.144150,357.513763 226.484741,357.589417 
	C226.128876,357.496460 225.925369,357.586578 225.721848,357.676697 
	C225.822845,357.786133 225.923843,357.895599 225.984589,358.352844 
	C225.954636,359.167175 225.964951,359.633728 226.026764,360.277374 
	C226.183853,360.683136 226.340317,360.868988 226.900024,361.209808 
	C227.473816,361.893097 227.695267,362.378510 228.028885,363.084869 
	C228.728806,363.547516 229.316574,363.789246 230.174408,364.063721 
	C230.632355,364.391449 230.820221,364.686401 230.990662,365.344177 
	C229.567871,367.673889 228.162521,369.640808 226.307556,372.237000 
	C230.186890,371.297058 233.075272,370.597229 235.963623,369.897369 
	C234.390457,372.528107 232.817291,375.158844 230.642426,377.890503 
	C229.689468,378.303680 229.338196,378.615967 228.986908,378.928253 
	C228.986908,378.928253 229.014130,378.980164 228.775391,379.099426 
	C228.273911,379.418671 228.094543,379.676636 227.998520,379.992554 
	C227.998520,379.992554 228.000000,380.001221 227.637115,380.024658 
	C224.375259,381.741669 221.476303,383.435272 218.577347,385.128876 
	C218.777267,385.319794 218.977188,385.510712 219.177109,385.701630 
	C222.086685,385.146423 224.996262,384.591217 227.905838,384.036011 
	C227.905838,384.036011 228.022263,384.107635 228.051544,384.321869 
	C228.199081,384.736786 228.361084,384.891815 228.566803,385.001160 
	C237.387848,393.337952 242.450577,404.289093 248.524933,414.458466 
	C251.391510,419.257568 245.267441,428.097748 239.121918,429.397797 
	C237.290710,429.785187 235.408096,429.929474 232.823135,430.420654 
	C220.711761,430.762604 209.326294,430.869049 197.940826,430.975464 
	C197.940826,430.975464 197.637634,430.722900 197.063950,430.694641 
	C185.676224,430.823242 174.862198,430.980072 164.048157,431.136902 
	C154.767136,430.091064 145.448242,429.297577 136.218079,427.912781 
	C129.810394,426.951385 129.060944,425.523285 131.158188,419.609314 
	C136.139893,405.561401 141.293686,391.573944 146.459885,377.592285 
	C148.641769,371.687317 151.029892,365.858582 153.847992,358.656799 
	C155.380875,361.347900 156.212494,362.807861 157.057007,364.949829 
	C157.411423,366.821320 157.854340,367.992279 158.076080,369.203674 
	C158.838058,373.366455 160.559158,376.743591 165.132538,378.317566 
	C166.094635,379.101044 166.870880,379.647522 167.647141,380.194000 
	C167.809799,379.789886 167.972473,379.385773 168.135147,378.981659 
	C167.117905,378.625214 166.100662,378.268768 165.028473,377.558533 
	C161.556900,373.448395 160.374741,369.019104 161.009827,364.042572 
	C161.537903,362.474335 162.065964,360.906097 163.117340,359.008331 
	C163.774979,358.174438 163.909302,357.670044 164.043610,357.165649 
	C164.228775,356.982086 164.413925,356.798553 164.707779,356.261353 
	C164.816467,355.907715 164.741196,355.934601 164.741196,355.934601 
	C165.349472,354.749329 165.957733,353.564087 167.119812,352.018890 
	C167.795807,351.156128 167.917984,350.653290 168.040161,350.150452 
	C168.223984,349.959839 168.407791,349.769226 168.710510,349.228271 
	C168.829422,348.877899 168.747726,348.934570 168.747742,348.934570 
	C169.213058,348.226196 169.678360,347.517822 170.392151,346.276428 
	C170.824448,345.553589 170.949829,345.330841 171.016754,345.075226 
	C171.189743,344.887024 171.362717,344.698853 171.663757,344.174988 
	C171.791794,343.839325 171.718292,343.915070 171.718292,343.915070 
	C172.620956,342.470001 173.523621,341.024933 174.611954,339.212860 
	C174.797623,338.845856 174.722382,338.918121 174.722382,338.918121 
	C175.937424,336.689606 177.152481,334.461090 178.971771,331.948853 
	C179.712662,331.097900 179.849365,330.530762 179.986053,329.963593 
	C182.416611,327.421417 184.847153,324.879242 187.533997,322.088837 
	C187.790298,321.840576 187.690308,321.863617 187.690308,321.863617 
	C189.531021,321.247528 191.371750,320.631470 193.785797,319.996613 
	C194.533356,319.939728 194.681625,319.855774 194.803940,319.725983 
	C195.356888,319.519562 195.909821,319.313141 197.091278,319.093567 
	C198.053970,318.983063 198.388153,318.885742 198.722351,318.788391 
	C199.608597,318.548096 200.494858,318.307831 202.131973,318.068298 
	C203.568832,317.831146 204.254822,317.593231 204.940826,317.355347 
M213.104843,386.030975 
	C209.425201,387.691589 205.962006,388.952057 201.893875,386.346680 
	C200.288422,385.318481 197.473953,386.178101 194.300522,386.178101 
	C195.428040,387.858551 195.677017,388.573761 195.947571,388.582031 
	C201.418884,388.748962 206.893906,388.908142 212.363831,388.814178 
	C212.865356,388.805573 213.337296,387.075348 213.104843,386.030975 
M182.250168,383.579041 
	C181.126297,383.429535 180.002426,383.280029 178.878555,383.130554 
	C178.809662,383.616302 178.740768,384.102081 178.671875,384.587860 
	C183.151001,385.463501 187.630127,386.339111 192.109238,387.214752 
	C192.217651,386.636230 192.326065,386.057678 192.434479,385.479156 
	C189.292969,384.925446 186.151474,384.371704 182.250168,383.579041 
M176.260742,382.366577 
	C175.745911,382.599518 175.221741,382.816193 174.733871,383.096069 
	C174.694473,383.118713 174.904205,383.575500 174.998169,383.830566 
	C175.541931,383.488739 176.085693,383.146912 176.260742,382.366577 
M217.600174,386.298950 
	C217.385574,386.009857 217.170990,385.720795 216.956406,385.431702 
	C216.771484,385.607910 216.586578,385.784088 216.401642,385.960266 
	C216.681244,386.188385 216.960846,386.416473 217.600174,386.298950 
M171.532730,380.775452 
	C171.403671,381.168823 171.253448,381.557495 171.163559,381.959625 
	C171.145737,382.039337 171.359695,382.170868 171.466751,382.278473 
	C171.595245,381.885040 171.723740,381.491608 171.532730,380.775452 
M169.519547,381.383118 
	C169.519547,381.383118 169.607651,381.520691 169.519547,381.383118 
M173.599457,381.522888 
	C173.599457,381.522888 173.475830,381.601624 173.599457,381.522888 
z"/>
<path fill="#155D7D" opacity="1.000000" stroke="none" 
	d="
M227.916718,362.863953 
	C227.695267,362.378510 227.473816,361.893097 226.975464,360.995544 
	C226.559189,360.270233 226.318100,360.109192 225.975266,360.100281 
	C225.964951,359.633728 225.954636,359.167175 226.153946,358.337585 
	C226.363556,357.974579 226.637115,357.772552 226.637115,357.772552 
	C227.144150,357.513763 227.651169,357.254944 228.494415,356.544373 
	C228.518921,355.472687 228.207184,354.852722 227.895447,354.232758 
	C226.179596,354.840942 224.463730,355.449127 222.109161,356.084351 
	C221.348206,356.415405 221.225937,356.719482 221.103668,357.023529 
	C221.103683,357.023529 220.972168,357.100616 220.860382,357.262817 
	C220.557571,357.583984 220.436218,357.785004 220.384521,358.028107 
	C220.384521,358.028107 220.162247,358.032928 219.882721,358.235992 
	C219.412628,358.970581 219.222076,359.502106 219.031525,360.033630 
	C219.695251,360.149536 220.358994,360.265442 221.022720,360.381348 
	C222.035919,361.365295 223.049118,362.349213 224.136841,364.050537 
	C224.251541,365.494934 224.291702,366.222015 224.331863,366.949066 
	C224.257599,367.127045 224.183350,367.305023 223.817535,367.917664 
	C223.403580,368.907959 223.281219,369.463593 223.158844,370.019226 
	C222.842239,370.255493 222.525620,370.491760 221.859451,371.034454 
	C221.410873,371.901398 221.311859,372.461914 221.212845,373.022430 
	C221.212845,373.022430 221.037369,373.001556 220.718170,373.102844 
	C219.980103,373.484406 219.561234,373.764679 219.142349,374.044922 
	C219.142349,374.044922 218.968948,374.127014 218.825302,374.283447 
	C218.449692,374.571869 218.277191,374.758789 218.164185,375.000580 
	C217.647369,375.044525 217.130554,375.088470 216.021790,375.273224 
	C215.005829,375.616882 214.581833,375.819733 214.157837,376.022644 
	C213.351334,376.045471 212.544846,376.068329 210.884613,376.162537 
	C205.370300,376.258698 200.709717,376.283478 196.049133,376.308228 
	C195.891037,376.237183 195.732925,376.166138 195.201935,375.736816 
	C194.214386,375.275604 193.599716,375.172668 192.985062,375.069702 
	C192.985062,375.069702 193.013794,375.021362 192.962692,374.747589 
	C192.608536,374.313629 192.305466,374.153442 192.002411,373.993256 
	C188.881516,370.800690 188.110901,367.053650 189.979385,362.728851 
	C192.040771,362.077148 193.491241,361.524750 194.941727,360.972351 
	C194.941727,360.972351 194.977859,361.009369 195.291687,360.923004 
	C195.653152,360.232544 195.700775,359.628479 195.748383,359.024384 
	C195.781097,358.566467 195.813812,358.108582 195.825623,357.074158 
	C195.629272,356.183044 195.361710,356.015900 195.002045,355.996185 
	C194.846497,355.706238 194.690948,355.416321 194.219620,354.805603 
	C193.609421,354.416534 193.315002,354.348267 193.020599,354.279968 
	C191.317856,355.880402 188.633881,357.217987 188.119843,359.136841 
	C187.098434,362.949738 184.700104,364.500153 180.948395,365.910675 
	C180.654465,367.055054 180.841171,367.826569 181.027893,368.598083 
	C181.894516,369.009125 182.761124,369.420166 183.988449,370.067749 
	C183.573715,371.228760 182.798279,372.153198 182.022827,373.077637 
	C180.244995,372.115692 178.467178,371.153748 176.273758,369.841125 
	C175.571396,369.322083 175.284622,369.153717 174.997833,368.985352 
	C174.625977,368.180847 174.254135,367.376312 173.804474,365.817413 
	C173.688751,362.734131 173.650833,360.405243 173.612915,358.076355 
	C176.150787,354.303375 178.688660,350.530396 181.694336,346.527527 
	C182.162155,346.297699 182.287949,346.547150 182.287949,346.547150 
	C182.287949,346.547150 181.870041,346.532928 181.870056,346.532928 
	C182.530441,344.885193 183.190826,343.237427 184.291504,341.130615 
	C185.498337,340.756622 186.264877,340.841736 187.206284,341.180389 
	C187.836884,341.905487 188.292618,342.377045 188.748352,342.848602 
	C189.164490,342.229767 189.580627,341.610962 190.377014,340.893860 
	C191.788177,340.740234 192.819611,340.692474 193.850006,340.628296 
	C199.499161,340.276581 205.148041,339.920837 210.893280,339.789185 
	C211.352295,339.966217 211.715042,339.920532 212.387939,339.900024 
	C213.110123,339.888885 213.522141,339.852631 214.159363,340.114929 
	C215.952972,340.218597 217.521393,340.023743 219.383423,339.975708 
	C220.454544,340.354767 221.232056,340.587006 222.009567,340.819214 
	C222.436401,340.883514 222.863235,340.947815 223.747467,341.294128 
	C224.798798,341.626923 225.392700,341.677704 225.986618,341.728485 
	C225.986618,341.728485 226.026489,342.007141 226.226990,342.174683 
	C226.630371,342.476685 226.833252,342.611206 227.036133,342.745728 
	C229.141769,345.200592 231.247391,347.655457 233.683502,349.777344 
	C234.014008,349.444397 233.980713,349.424011 233.503647,349.710571 
	C233.387558,350.987396 233.748535,351.977661 234.102631,353.404358 
	C234.099777,355.565552 234.103790,357.290283 234.075363,359.456726 
	C233.938705,361.661713 233.834457,363.425049 233.533173,365.402527 
	C232.560120,365.404907 231.784103,365.193146 231.008087,364.981384 
	C230.820221,364.686401 230.632355,364.391449 230.113556,363.789917 
	C229.160645,363.276917 228.538681,363.070435 227.916718,362.863953 
z"/>
<path fill="#F4F5F5" opacity="1.000000" stroke="none" 
	d="
M156.124390,302.178833 
	C145.815689,308.348663 146.072006,305.958923 142.819717,297.254913 
	C138.810043,286.523987 137.849762,275.710510 140.232452,264.557434 
	C141.220367,259.933105 143.143753,256.412781 148.668259,256.004272 
	C152.010086,255.757141 155.276871,254.252594 158.603699,254.147644 
	C160.280563,254.094742 162.896072,255.489838 163.571396,256.937317 
	C166.370468,262.936798 168.718445,269.159576 170.993073,275.387634 
	C174.032364,283.709442 170.807373,290.278320 164.626770,295.727936 
	C162.057968,297.992950 159.147095,299.870026 156.124390,302.178833 
M140.974625,279.079102 
	C141.868179,283.894226 143.420486,289.183044 148.664871,289.770264 
	C154.170944,290.386719 159.932999,288.858948 165.556305,288.075409 
	C166.144104,287.993469 167.161346,286.314697 166.948593,285.870270 
	C163.905304,279.513153 163.393921,271.587006 154.423508,269.185974 
	C146.892212,267.170074 140.874786,270.604218 140.974625,279.079102 
z"/>
<path fill="#F4F5F5" opacity="1.000000" stroke="none" 
	d="
M234.107788,359.015045 
	C234.103790,357.290283 234.099777,355.565552 234.307632,353.257843 
	C234.663651,352.202820 234.807816,351.730774 234.951981,351.258698 
	C235.446915,357.354858 235.941864,363.451019 236.200226,369.722290 
	C233.075272,370.597229 230.186890,371.297058 226.307556,372.237000 
	C228.162521,369.640808 229.567871,367.673889 230.990662,365.344177 
	C231.784103,365.193146 232.560120,365.404907 233.731186,365.742981 
	C234.120087,363.584595 234.113937,361.299805 234.107788,359.015045 
z"/>
<path fill="#1D475A" opacity="1.000000" stroke="none" 
	d="
M164.361481,431.401398 
	C174.862198,430.980072 185.676224,430.823242 196.904480,430.810852 
	C186.437393,431.192139 175.556091,431.429016 164.361481,431.401398 
z"/>
<path fill="#F4F5F5" opacity="1.000000" stroke="none" 
	d="
M164.946701,378.080627 
	C160.559158,376.743591 158.838058,373.366455 158.076080,369.203674 
	C157.854340,367.992279 157.411423,366.821320 157.052658,365.313721 
	C158.157501,364.823486 159.279587,364.651367 160.705750,364.260895 
	C160.374741,369.019104 161.556900,373.448395 164.992615,377.599243 
	C165.011719,377.993744 164.946701,378.080627 164.946701,378.080627 
z"/>
<path fill="#000206" opacity="1.000000" stroke="none" 
	d="
M198.198059,431.321014 
	C209.326294,430.869049 220.711761,430.762604 232.564758,430.570618 
	C232.055328,430.973877 231.078720,431.885590 230.101318,431.886444 
	C219.552719,431.895691 209.003983,431.761536 198.198059,431.321014 
z"/>
<path fill="#3C4A5B" opacity="1.000000" stroke="none" 
	d="
M62.817207,182.206085 
	C63.007992,184.016083 62.487331,186.007385 62.708542,187.912521 
	C63.157696,191.780716 62.070705,194.033127 57.436806,193.986954 
	C62.138203,191.688889 59.934666,185.939590 62.817207,182.206085 
z"/>
<path fill="#F4F5F5" opacity="1.000000" stroke="none" 
	d="
M227.862122,383.696716 
	C224.996262,384.591217 222.086685,385.146423 219.177109,385.701630 
	C218.977188,385.510712 218.777267,385.319794 218.577347,385.128876 
	C221.476303,383.435272 224.375259,381.741669 227.632599,380.022461 
	C227.933456,381.117035 227.875931,382.237213 227.862122,383.696716 
z"/>
<path fill="#3C4A5B" opacity="1.000000" stroke="none" 
	d="
M66.609985,179.961426 
	C65.910431,180.663727 64.829765,181.359665 63.409309,182.102173 
	C64.122643,181.417526 65.175758,180.686295 66.609985,179.961426 
z"/>
<path fill="#F4F5F5" opacity="1.000000" stroke="none" 
	d="
M211.577240,316.865723 
	C210.829086,317.038422 209.853760,317.042480 208.514313,317.033386 
	C209.216843,316.912537 210.283447,316.804810 211.577240,316.865723 
z"/>
<path fill="#FCFCFC" opacity="1.000000" stroke="none" 
	d="
M234.959320,350.855408 
	C234.807816,351.730774 234.663651,352.202820 234.314484,352.821411 
	C233.748535,351.977661 233.387558,350.987396 233.506378,349.732025 
	C234.313019,349.795288 234.639847,350.123718 234.959320,350.855408 
z"/>
<path fill="#F4F5F5" opacity="1.000000" stroke="none" 
	d="
M233.923264,345.656128 
	C233.645844,345.233551 233.317749,344.463898 232.990570,343.358215 
	C233.285187,343.784515 233.578888,344.546783 233.923264,345.656128 
z"/>
<path fill="#F4F5F5" opacity="1.000000" stroke="none" 
	d="
M204.663055,317.311768 
	C204.254822,317.593231 203.568832,317.831146 202.601776,318.066223 
	C203.008896,317.798340 203.697098,317.533295 204.663055,317.311768 
z"/>
<path fill="#F4F5F5" opacity="1.000000" stroke="none" 
	d="
M163.738159,357.194275 
	C163.909302,357.670044 163.774979,358.174438 163.436096,358.845886 
	C163.298599,358.416260 163.365662,357.819580 163.738159,357.194275 
z"/>
<path fill="#F4F5F5" opacity="1.000000" stroke="none" 
	d="
M167.734833,350.183411 
	C167.917984,350.653290 167.795807,351.156128 167.479614,351.833313 
	C167.333572,351.410522 167.381531,350.813446 167.734833,350.183411 
z"/>
<path fill="#F4F5F5" opacity="1.000000" stroke="none" 
	d="
M226.085831,328.537872 
	C226.041031,328.675690 226.014481,328.564117 226.022827,328.573914 
	C226.031174,328.583710 225.919250,328.249420 225.919250,328.249420 
	C225.919250,328.249420 226.130630,328.400055 226.085831,328.537872 
z"/>
<path fill="#F4F5F5" opacity="1.000000" stroke="none" 
	d="
M179.697647,330.085388 
	C179.849365,330.530762 179.712662,331.097900 179.333557,331.836670 
	C179.197159,331.407867 179.303207,330.807526 179.697647,330.085388 
z"/>
<path fill="#F4F5F5" opacity="1.000000" stroke="none" 
	d="
M220.896271,321.708801 
	C220.448029,321.829987 219.885910,321.663788 219.166840,321.241455 
	C219.600723,321.130676 220.191559,321.276031 220.896271,321.708801 
z"/>
<path fill="#F4F5F5" opacity="1.000000" stroke="none" 
	d="
M198.548859,318.717316 
	C198.388153,318.885742 198.053970,318.983063 197.543243,319.081970 
	C197.702927,318.937775 198.039154,318.792023 198.548859,318.717316 
z"/>
<path fill="#F4F5F5" opacity="1.000000" stroke="none" 
	d="
M229.228149,378.814514 
	C229.338196,378.615967 229.689468,378.303680 230.280334,377.944885 
	C230.169739,378.165894 229.819565,378.433350 229.228149,378.814514 
z"/>
<path fill="#F4F5F5" opacity="1.000000" stroke="none" 
	d="
M234.375687,348.355652 
	C234.110168,348.032135 234.058136,347.457031 233.999924,346.449982 
	C234.192230,346.713348 234.390701,347.408722 234.375687,348.355652 
z"/>
<path fill="#F4F5F5" opacity="1.000000" stroke="none" 
	d="
M228.509796,384.839539 
	C228.361084,384.891815 228.199081,384.736786 228.015381,384.379883 
	C228.164886,384.322723 228.332504,384.474152 228.509796,384.839539 
z"/>
<path fill="#F4F5F5" opacity="1.000000" stroke="none" 
	d="
M228.264069,379.953857 
	C228.094543,379.676636 228.273911,379.418671 228.746658,379.105194 
	C228.814316,379.299561 228.671967,379.607361 228.264069,379.953857 
z"/>
<path fill="#F4F5F5" opacity="1.000000" stroke="none" 
	d="
M170.756470,345.075500 
	C170.949829,345.330841 170.824448,345.553589 170.483566,345.856201 
	C170.383087,345.671234 170.439651,345.373505 170.756470,345.075500 
z"/>
<path fill="#F4F5F5" opacity="1.000000" stroke="none" 
	d="
M232.894196,342.767090 
	C232.795334,342.764618 232.622116,342.520630 232.578049,342.154755 
	C232.744751,342.197113 232.782288,342.361359 232.894196,342.767090 
z"/>
<path fill="#3C4A5B" opacity="1.000000" stroke="none" 
	d="
M67.514732,179.185089 
	C67.478752,179.243149 67.337570,179.461716 67.105423,179.858551 
	C67.056427,179.752396 67.188118,179.521988 67.514732,179.185089 
z"/>
<path fill="#F4F5F5" opacity="1.000000" stroke="none" 
	d="
M194.666412,319.663147 
	C194.681625,319.855774 194.533356,319.939728 194.230377,319.986237 
	C194.166077,319.778564 194.308487,319.647125 194.666412,319.663147 
z"/>
<path fill="#F4F5F5" opacity="1.000000" stroke="none" 
	d="
M187.737549,321.904572 
	C187.690308,321.863617 187.790298,321.840576 187.819504,321.836609 
	C187.848709,321.832642 187.784790,321.945526 187.737549,321.904572 
z"/>
<path fill="#F4F5F5" opacity="1.000000" stroke="none" 
	d="
M227.113022,329.710052 
	C227.066650,329.711823 227.147781,329.800018 227.159943,329.831818 
	C227.172104,329.863617 227.159393,329.708282 227.113022,329.710052 
z"/>
<path fill="#F4F5F5" opacity="1.000000" stroke="none" 
	d="
M229.583923,334.820770 
	C229.375137,334.894196 229.203857,334.718719 229.033783,334.310455 
	C229.237152,334.222626 229.432648,334.387360 229.583923,334.820770 
z"/>
<path fill="#F4F5F5" opacity="1.000000" stroke="none" 
	d="
M230.001541,335.538635 
	C229.996719,335.459625 230.001419,335.526886 229.983582,335.530609 
	C229.965729,335.534332 230.006363,335.617676 230.001541,335.538635 
z"/>
<path fill="#F4F5F5" opacity="1.000000" stroke="none" 
	d="
M231.044525,337.432373 
	C230.923264,337.531799 230.976532,337.537201 230.948425,337.543121 
	C230.920334,337.549042 231.312271,337.597382 231.312271,337.597382 
	C231.312271,337.597382 231.165802,337.332916 231.044525,337.432373 
z"/>
<path fill="#F4F5F5" opacity="1.000000" stroke="none" 
	d="
M174.755127,338.877686 
	C174.722382,338.918121 174.797623,338.845856 174.803772,338.821350 
	C174.809906,338.796875 174.787872,338.837280 174.755127,338.877686 
z"/>
<path fill="#F4F5F5" opacity="1.000000" stroke="none" 
	d="
M171.751175,343.873291 
	C171.718292,343.915070 171.791794,343.839325 171.794952,343.814728 
	C171.798111,343.790131 171.784058,343.831482 171.751175,343.873291 
z"/>
<path fill="#F4F5F5" opacity="1.000000" stroke="none" 
	d="
M168.745758,348.881989 
	C168.747726,348.934570 168.829422,348.877899 168.858139,348.859497 
	C168.886856,348.841095 168.743805,348.829407 168.745758,348.881989 
z"/>
<path fill="#F4F5F5" opacity="1.000000" stroke="none" 
	d="
M164.746002,355.880981 
	C164.741196,355.934601 164.816467,355.907715 164.848175,355.896332 
	C164.879883,355.884949 164.750793,355.827393 164.746002,355.880981 
z"/>
<path fill="#165977" opacity="1.000000" stroke="none" 
	d="
M285.671417,233.695938 
	C287.295685,232.833496 288.569794,232.110687 289.123627,231.796494 
	C289.419373,227.507111 289.669098,223.885284 290.007568,218.976471 
	C294.333649,223.166855 298.229797,222.451492 302.544312,220.318909 
	C304.934265,219.137650 306.411865,218.355453 306.118103,215.434311 
	C305.790100,212.172836 308.366028,210.783707 310.468781,212.256790 
	C315.213318,215.580658 318.418121,214.067062 321.438141,209.743057 
	C321.885498,209.974823 322.332855,210.206573 322.780212,210.438324 
	C322.550568,211.770020 322.604553,213.237015 322.044525,214.411133 
	C318.757385,221.303085 312.028320,223.443924 305.662323,226.120972 
	C303.507507,227.027145 301.233551,228.051529 299.597870,229.627762 
	C298.731079,230.463028 298.779724,232.666611 299.076477,234.117188 
	C299.228149,234.858612 300.781525,235.437531 301.797791,235.855316 
	C305.325684,237.305527 308.895782,238.653046 312.449829,240.039642 
	C312.736420,240.664139 313.023010,241.288635 313.309570,241.913147 
	C312.485779,242.166458 311.590149,242.771393 310.849091,242.619919 
	C300.936981,240.593994 289.946106,244.713242 280.092255,237.094009 
	C282.150543,235.811371 283.735901,234.823471 285.671417,233.695938 
z"/>
<path fill="#042433" opacity="1.000000" stroke="none" 
	d="
M300.784851,255.004333 
	C300.599854,255.369736 300.087280,255.696609 299.250031,255.987442 
	C299.435974,255.622879 299.946625,255.294342 300.784851,255.004333 
z"/>
<path fill="#042433" opacity="1.000000" stroke="none" 
	d="
M298.674866,255.947662 
	C298.813171,256.258240 298.668945,256.606262 298.216309,256.947937 
	C298.069336,256.622772 298.230835,256.303955 298.674866,255.947662 
z"/>
<path fill="#042433" opacity="1.000000" stroke="none" 
	d="
M297.658081,256.936920 
	C297.796082,257.254486 297.648834,257.602264 297.192810,257.944031 
	C297.046967,257.614410 297.209900,257.290771 297.658081,256.936920 
z"/>
<path fill="#165B7A" opacity="1.000000" stroke="none" 
	d="
M105.051201,221.707977 
	C106.189003,222.578247 106.945221,223.449799 108.460373,225.196014 
	C103.907059,225.196014 100.153336,225.196014 95.441002,225.196014 
	C97.539085,230.256882 101.366158,230.786850 104.881706,231.921265 
	C107.595879,232.797104 110.283546,233.879669 112.765114,235.261597 
	C113.363770,235.594971 113.564354,237.737396 113.096222,238.567642 
	C112.674255,239.315994 110.813148,240.026260 110.053680,239.692093 
	C101.837296,236.076889 93.514977,232.617538 85.638313,228.347015 
	C80.921875,225.789886 80.941628,220.983765 84.933601,216.490097 
	C89.387413,220.584229 93.120628,219.241760 96.620071,214.850723 
	C98.211380,212.853943 100.188354,210.903702 102.415962,209.764526 
	C103.956696,208.976624 106.225838,209.613098 109.342300,209.613098 
	C105.808334,213.632217 103.187233,216.613129 100.166565,220.048477 
	C102.302635,220.836273 103.486122,221.272751 105.051201,221.707977 
z"/>
<path fill="#135370" opacity="1.000000" stroke="none" 
	d="
M89.333267,203.602234 
	C92.081703,208.914963 88.046501,211.200287 86.038307,213.564346 
	C82.900269,210.437271 79.807755,207.490143 76.896294,204.373871 
	C75.999840,203.414383 74.810005,201.654724 75.150826,200.861099 
	C75.684540,199.618301 77.357048,198.230515 78.638885,198.135010 
	C79.750671,198.052200 81.206978,199.499466 82.111229,200.599197 
	C83.008827,201.690857 83.407402,203.192810 83.441666,203.266174 
	C85.912979,203.266174 87.548737,203.266174 89.333267,203.602234 
z"/>
<path fill="#155978" opacity="1.000000" stroke="none" 
	d="
M219.089844,339.828857 
	C217.521393,340.023743 215.952972,340.218597 214.302368,339.828674 
	C215.301422,339.243927 216.382645,339.243927 218.126144,339.243927 
	C213.949905,336.228241 210.435394,333.690369 207.227112,331.373657 
	C203.052505,333.864777 199.165482,336.762787 194.819199,338.533447 
	C192.651169,339.416748 189.642929,338.237701 187.014755,337.991516 
	C187.298508,337.526428 187.582245,337.061340 188.225220,336.189880 
	C188.714172,335.188477 188.843872,334.593506 188.973572,333.998505 
	C192.492874,331.336334 196.012177,328.674164 200.195068,325.864563 
	C202.893799,325.390198 204.928986,325.063232 206.964157,324.736267 
	C208.424438,325.478668 209.884705,326.221069 211.808792,327.248718 
	C212.844482,327.631012 213.416336,327.728149 213.988205,327.825256 
	C213.988205,327.825256 214.019424,328.024933 214.230591,328.249664 
	C214.969162,328.910309 215.496597,329.346222 216.024017,329.782135 
	C217.150101,331.177429 218.276184,332.572693 219.890686,334.165833 
	C220.623825,334.621643 220.868546,334.879669 221.113281,335.137665 
	C221.375015,335.840149 221.636749,336.542664 221.653198,337.700775 
	C220.635239,338.713898 219.862534,339.271393 219.089844,339.828857 
z"/>
<path fill="#EEEFEF" opacity="1.000000" stroke="none" 
	d="
M186.736099,338.113098 
	C189.642929,338.237701 192.651169,339.416748 194.819199,338.533447 
	C199.165482,336.762787 203.052505,333.864777 207.227112,331.373657 
	C210.435394,333.690369 213.949905,336.228241 218.126144,339.243927 
	C216.382645,339.243927 215.301422,339.243927 214.077179,339.530151 
	C213.522141,339.852631 213.110123,339.888885 212.292206,339.703400 
	C211.523209,339.509949 211.160126,339.538239 210.797028,339.566498 
	C205.148041,339.920837 199.499161,340.276581 193.850006,340.628296 
	C192.819611,340.692474 191.788177,340.740234 190.194977,340.653442 
	C188.765625,340.649872 187.898529,340.788361 187.031433,340.926849 
	C186.264877,340.841736 185.498337,340.756622 184.354645,340.752441 
	C184.804169,339.967163 185.630814,339.100922 186.736099,338.113098 
z"/>
<path fill="#F4F5F5" opacity="1.000000" stroke="none" 
	d="
M213.463913,386.087769 
	C213.337296,387.075348 212.865356,388.805573 212.363831,388.814178 
	C206.893906,388.908142 201.418884,388.748962 195.947571,388.582031 
	C195.677017,388.573761 195.428040,387.858551 194.300522,386.178101 
	C197.473953,386.178101 200.288422,385.318481 201.893875,386.346680 
	C205.962006,388.952057 209.425201,387.691589 213.463913,386.087769 
z"/>
<path fill="#F4F5F5" opacity="1.000000" stroke="none" 
	d="
M182.630066,383.698486 
	C186.151474,384.371704 189.292969,384.925446 192.434479,385.479156 
	C192.326065,386.057678 192.217651,386.636230 192.109238,387.214752 
	C187.630127,386.339111 183.151001,385.463501 178.671875,384.587860 
	C178.740768,384.102081 178.809662,383.616302 178.878555,383.130554 
	C180.002426,383.280029 181.126297,383.429535 182.630066,383.698486 
z"/>
<path fill="#F4F5F5" opacity="1.000000" stroke="none" 
	d="
M196.381683,376.541504 
	C200.709717,376.283478 205.370300,376.258698 210.493103,376.261414 
	C206.208313,376.450867 201.461273,376.612823 196.381683,376.541504 
z"/>
<path fill="#F4F5F5" opacity="1.000000" stroke="none" 
	d="
M182.213409,373.309692 
	C182.798279,372.153198 183.573715,371.228760 184.311951,369.896118 
	C186.447311,371.705139 186.052429,372.560791 182.213409,373.309692 
z"/>
<path fill="#F4F5F5" opacity="1.000000" stroke="none" 
	d="
M206.691940,324.512756 
	C204.928986,325.063232 202.893799,325.390198 200.472992,325.623413 
	C202.198151,325.116180 204.308945,324.702698 206.691940,324.512756 
z"/>
<path fill="#F4F5F5" opacity="1.000000" stroke="none" 
	d="
M173.407562,358.382690 
	C173.650833,360.405243 173.688751,362.734131 173.681320,365.497375 
	C173.491379,363.517487 173.346802,361.103241 173.407562,358.382690 
z"/>
<path fill="#F4F5F5" opacity="1.000000" stroke="none" 
	d="
M194.584595,360.964600 
	C193.491241,361.524750 192.040771,362.077148 190.296112,362.411346 
	C191.410461,361.781067 192.818954,361.368958 194.584595,360.964600 
z"/>
<path fill="#F4F5F5" opacity="1.000000" stroke="none" 
	d="
M220.985855,360.149597 
	C220.358994,360.265442 219.695251,360.149536 219.031525,360.033630 
	C219.222076,359.502106 219.412628,358.970581 219.852600,358.342987 
	C220.384338,358.803894 220.666672,359.360870 220.985855,360.149597 
z"/>
<path fill="#F4F5F5" opacity="1.000000" stroke="none" 
	d="
M219.383423,339.975708 
	C219.862534,339.271393 220.635239,338.713898 221.704559,338.079865 
	C222.003067,338.707306 222.004974,339.411316 222.008209,340.467255 
	C221.232056,340.587006 220.454544,340.354767 219.383423,339.975708 
z"/>
<path fill="#F4F5F5" opacity="1.000000" stroke="none" 
	d="
M165.047577,377.953033 
	C166.100662,378.268768 167.117905,378.625214 168.135147,378.981659 
	C167.972473,379.385773 167.809799,379.789886 167.647141,380.194000 
	C166.870880,379.647522 166.094635,379.101044 165.132538,378.317566 
	C164.946701,378.080627 165.011719,377.993744 165.047577,377.953033 
z"/>
<path fill="#F4F5F5" opacity="1.000000" stroke="none" 
	d="
M176.445099,382.585815 
	C176.085693,383.146912 175.541931,383.488739 174.998169,383.830566 
	C174.904205,383.575500 174.694473,383.118713 174.733871,383.096069 
	C175.221741,382.816193 175.745911,382.599518 176.445099,382.585815 
z"/>
<path fill="#F4F5F5" opacity="1.000000" stroke="none" 
	d="
M217.420319,386.471741 
	C216.960846,386.416473 216.681244,386.188385 216.401642,385.960266 
	C216.586578,385.784088 216.771484,385.607910 216.956390,385.431702 
	C217.170990,385.720795 217.385574,386.009857 217.420319,386.471741 
z"/>
<path fill="#F4F5F5" opacity="1.000000" stroke="none" 
	d="
M228.028885,363.084869 
	C228.538681,363.070435 229.160645,363.276917 229.843460,363.757202 
	C229.316574,363.789246 228.728806,363.547516 228.028885,363.084869 
z"/>
<path fill="#F4F5F5" opacity="1.000000" stroke="none" 
	d="
M227.977234,354.807892 
	C228.207184,354.852722 228.518921,355.472687 228.635635,356.286560 
	C228.313416,356.114624 228.186218,355.748840 227.977234,354.807892 
z"/>
<path fill="#F4F5F5" opacity="1.000000" stroke="none" 
	d="
M171.692474,380.936829 
	C171.723740,381.491608 171.595245,381.885040 171.466751,382.278473 
	C171.359695,382.170868 171.145737,382.039337 171.163559,381.959625 
	C171.253448,381.557495 171.403671,381.168823 171.692474,380.936829 
z"/>
<path fill="#F4F5F5" opacity="1.000000" stroke="none" 
	d="
M215.905746,329.550537 
	C215.496597,329.346222 214.969162,328.910309 214.330612,328.235352 
	C214.742142,328.437164 215.264816,328.878021 215.905746,329.550537 
z"/>
<path fill="#F4F5F5" opacity="1.000000" stroke="none" 
	d="
M181.032959,368.287384 
	C180.841171,367.826569 180.654465,367.055054 180.740051,366.198669 
	C181.020920,366.734772 181.029495,367.355743 181.032959,368.287384 
z"/>
<path fill="#F4F5F5" opacity="1.000000" stroke="none" 
	d="
M224.523422,366.749237 
	C224.291702,366.222015 224.251541,365.494934 224.262909,364.406677 
	C224.447968,364.880096 224.581482,365.714752 224.523422,366.749237 
z"/>
<path fill="#F4F5F5" opacity="1.000000" stroke="none" 
	d="
M219.414154,374.021301 
	C219.561234,373.764679 219.980103,373.484406 220.710052,373.190857 
	C220.576065,373.450897 220.131012,373.724274 219.414154,374.021301 
z"/>
<path fill="#F4F5F5" opacity="1.000000" stroke="none" 
	d="
M223.380646,369.843628 
	C223.281219,369.463593 223.403580,368.907959 223.771011,368.203186 
	C223.878189,368.592010 223.740311,369.130005 223.380646,369.843628 
z"/>
<path fill="#F4F5F5" opacity="1.000000" stroke="none" 
	d="
M195.550430,359.209778 
	C195.700775,359.628479 195.653152,360.232544 195.293304,360.897186 
	C195.104874,360.436890 195.228668,359.916016 195.550430,359.209778 
z"/>
<path fill="#F4F5F5" opacity="1.000000" stroke="none" 
	d="
M193.162506,375.314117 
	C193.599716,375.172668 194.214386,375.275604 194.949341,375.675232 
	C194.493088,375.834106 193.916534,375.696320 193.162506,375.314117 
z"/>
<path fill="#F4F5F5" opacity="1.000000" stroke="none" 
	d="
M214.397568,376.028687 
	C214.581833,375.819733 215.005829,375.616882 215.668549,375.437164 
	C215.483948,375.651794 215.060623,375.843292 214.397568,376.028687 
z"/>
<path fill="#F4F5F5" opacity="1.000000" stroke="none" 
	d="
M175.000000,369.220703 
	C175.284622,369.153717 175.571396,369.322083 175.933807,369.732910 
	C175.673691,369.802307 175.337921,369.629181 175.000000,369.220703 
z"/>
<path fill="#F4F5F5" opacity="1.000000" stroke="none" 
	d="
M221.413025,372.873199 
	C221.311859,372.461914 221.410873,371.901398 221.796997,371.334595 
	C221.927124,371.793518 221.770172,372.258728 221.413025,372.873199 
z"/>
<path fill="#F4F5F5" opacity="1.000000" stroke="none" 
	d="
M213.822571,327.601105 
	C213.416336,327.728149 212.844482,327.631012 212.166809,327.255859 
	C212.592987,327.110901 213.124954,327.243927 213.822571,327.601105 
z"/>
<path fill="#F4F5F5" opacity="1.000000" stroke="none" 
	d="
M188.720917,334.162476 
	C188.843872,334.593506 188.714172,335.188477 188.298859,335.907959 
	C188.164902,335.463776 188.316589,334.895111 188.720917,334.162476 
z"/>
<path fill="#F4F5F5" opacity="1.000000" stroke="none" 
	d="
M221.048096,334.951630 
	C220.868546,334.879669 220.623825,334.621643 220.263519,334.172089 
	C220.426254,334.242218 220.704590,334.503906 221.048096,334.951630 
z"/>
<path fill="#F4F5F5" opacity="1.000000" stroke="none" 
	d="
M225.793915,341.520630 
	C225.392700,341.677704 224.798798,341.626923 224.073273,341.299591 
	C224.494843,341.119629 225.048035,341.216217 225.793915,341.520630 
z"/>
<path fill="#F4F5F5" opacity="1.000000" stroke="none" 
	d="
M226.976227,342.624451 
	C226.833252,342.611206 226.630371,342.476685 226.367401,342.165100 
	C226.572678,342.085968 226.775681,342.257690 226.976227,342.624451 
z"/>
<path fill="#F4F5F5" opacity="1.000000" stroke="none" 
	d="
M169.563599,381.451904 
	C169.607651,381.520691 169.519547,381.383118 169.563599,381.451904 
z"/>
<path fill="#F4F5F5" opacity="1.000000" stroke="none" 
	d="
M173.537643,381.562256 
	C173.475830,381.601624 173.599457,381.522888 173.537643,381.562256 
z"/>
<path fill="#F4F5F5" opacity="1.000000" stroke="none" 
	d="
M192.101440,374.213501 
	C192.305466,374.153442 192.608536,374.313629 192.934891,374.743439 
	C192.644897,374.899384 192.392319,374.706268 192.101440,374.213501 
z"/>
<path fill="#F4F5F5" opacity="1.000000" stroke="none" 
	d="
M218.345718,374.934357 
	C218.277191,374.758789 218.449692,374.571869 218.862091,374.372009 
	C218.927887,374.544403 218.756134,374.732391 218.345718,374.934357 
z"/>
<path fill="#F4F5F5" opacity="1.000000" stroke="none" 
	d="
M226.026764,360.277374 
	C226.318100,360.109192 226.559189,360.270233 226.623108,360.797729 
	C226.340317,360.868988 226.183853,360.683136 226.026764,360.277374 
z"/>
<path fill="#F4F5F5" opacity="1.000000" stroke="none" 
	d="
M181.897263,346.527588 
	C181.870041,346.532928 182.287949,346.547150 182.287949,346.547150 
	C182.287949,346.547150 182.162155,346.297699 182.035797,346.392334 
	C181.909424,346.486938 181.924484,346.522247 181.897263,346.527588 
z"/>
<path fill="#F4F5F5" opacity="1.000000" stroke="none" 
	d="
M193.149048,354.451721 
	C193.315002,354.348267 193.609421,354.416534 193.973175,354.735168 
	C193.747818,354.948700 193.492798,354.828033 193.149048,354.451721 
z"/>
<path fill="#F4F5F5" opacity="1.000000" stroke="none" 
	d="
M195.060150,356.194489 
	C195.361710,356.015900 195.629272,356.183044 195.746887,356.736084 
	C195.434250,356.843964 195.243988,356.650024 195.060150,356.194489 
z"/>
<path fill="#F4F5F5" opacity="1.000000" stroke="none" 
	d="
M221.284363,356.935516 
	C221.225937,356.719482 221.348206,356.415405 221.728302,356.178802 
	C221.870148,356.496674 221.696457,356.697083 221.284363,356.935516 
z"/>
<path fill="#F4F5F5" opacity="1.000000" stroke="none" 
	d="
M220.530975,357.928070 
	C220.436218,357.785004 220.557571,357.583984 220.898743,357.328674 
	C220.980286,357.465332 220.856461,357.663879 220.530975,357.928070 
z"/>
<path fill="#F4F5F5" opacity="1.000000" stroke="none" 
	d="
M226.484741,357.589417 
	C226.637115,357.772552 226.363556,357.974579 226.194199,357.989807 
	C225.923843,357.895599 225.822845,357.786133 225.721848,357.676697 
	C225.925369,357.586578 226.128876,357.496460 226.484741,357.589417 
z"/>
<path fill="#F4F5F5" opacity="1.000000" stroke="none" 
	d="
M187.206284,341.180389 
	C187.898529,340.788361 188.765625,340.649872 189.814758,340.751770 
	C189.580627,341.610962 189.164490,342.229767 188.748352,342.848602 
	C188.292618,342.377045 187.836884,341.905487 187.206284,341.180389 
z"/>
<path fill="#000003" opacity="1.000000" stroke="none" 
	d="
M234.075363,359.456726 
	C234.113937,361.299805 234.120087,363.584595 233.928223,365.528870 
	C233.834457,363.425049 233.938705,361.661713 234.075363,359.456726 
z"/>
<path fill="#155978" opacity="1.000000" stroke="none" 
	d="
M210.893280,339.789185 
	C211.160126,339.538239 211.523209,339.509949 211.982056,339.678284 
	C211.715042,339.920532 211.352295,339.966217 210.893280,339.789185 
z"/>
<path fill="#155D7E" opacity="1.000000" stroke="none" 
	d="
M140.950974,278.645447 
	C140.874786,270.604218 146.892212,267.170074 154.423508,269.185974 
	C163.393921,271.587006 163.905304,279.513153 166.948593,285.870270 
	C167.161346,286.314697 166.144104,287.993469 165.556305,288.075409 
	C159.932999,288.858948 154.170944,290.386719 148.664871,289.770264 
	C143.420486,289.183044 141.868179,283.894226 140.950974,278.645447 
z"/>
</svg>